<svg width="315" height="205" viewBox="0 0 315 205" fill="none" xmlns="http://www.w3.org/2000/svg">
<path d="M0 11.6667C0 5.22336 5.22334 0 11.6667 0H303.333C309.777 0 315 5.22334 315 11.6667V192.5C315 198.943 309.777 204.167 303.333 204.167H11.6667C5.22334 204.167 0 198.943 0 192.5V11.6667Z" fill="#F7F9FB"/>
<path d="M17.906 22.2032V21.0758H23.8295V22.2032H21.5348V28.5H20.2007V22.2032H17.906ZM24.3352 28.5V22.9318H25.6076V23.8598H25.6656C25.7671 23.5384 25.9411 23.2907 26.1876 23.1167C26.4365 22.9403 26.7205 22.8521 27.0395 22.8521C27.112 22.8521 27.193 22.8557 27.2824 22.8629C27.3742 22.8678 27.4503 22.8762 27.5108 22.8883V24.0955C27.4552 24.0761 27.367 24.0592 27.2461 24.0447C27.1277 24.0278 27.0129 24.0194 26.9017 24.0194C26.6625 24.0194 26.4474 24.0713 26.2565 24.1752C26.068 24.2767 25.9193 24.4181 25.8106 24.5994C25.7018 24.7806 25.6475 24.9897 25.6475 25.2265V28.5H24.3352ZM30.2196 28.5979C29.7822 28.5979 29.3907 28.4855 29.0451 28.2607C28.6995 28.036 28.4264 27.7097 28.2258 27.282C28.0252 26.8542 27.9249 26.3346 27.9249 25.7232C27.9249 25.1045 28.0264 24.5825 28.2294 24.1571C28.4349 23.7293 28.7116 23.4067 29.0596 23.1892C29.4076 22.9693 29.7955 22.8593 30.2233 22.8593C30.5495 22.8593 30.8178 22.9149 31.028 23.0261C31.2383 23.1348 31.405 23.2665 31.5283 23.4212C31.6516 23.5735 31.747 23.7173 31.8147 23.8526H31.8691V22.9318H33.185V28.5H31.8944V27.6227H31.8147C31.747 27.7581 31.6491 27.9019 31.5211 28.0541C31.393 28.2039 31.2238 28.332 31.0135 28.4384C30.8033 28.5447 30.5386 28.5979 30.2196 28.5979ZM30.5858 27.5212C30.8637 27.5212 31.1005 27.4463 31.2963 27.2965C31.4921 27.1442 31.6407 26.9327 31.7422 26.6621C31.8437 26.3914 31.8944 26.076 31.8944 25.7159C31.8944 25.3558 31.8437 25.0428 31.7422 24.777C31.6431 24.5112 31.4957 24.3045 31.2999 24.1571C31.1066 24.0097 30.8685 23.936 30.5858 23.936C30.2933 23.936 30.0493 24.0121 29.8535 24.1644C29.6577 24.3166 29.5103 24.5269 29.4112 24.7951C29.3121 25.0634 29.2626 25.3703 29.2626 25.7159C29.2626 26.0639 29.3121 26.3745 29.4112 26.6476C29.5127 26.9182 29.6614 27.1321 29.8571 27.2892C30.0553 27.4439 30.2982 27.5212 30.5858 27.5212ZM37.4037 22.9318V23.9469H34.1121V22.9318H37.4037ZM34.935 28.5V22.4062C34.935 22.0316 35.0123 21.7198 35.167 21.4709C35.3241 21.222 35.5344 21.0359 35.7978 20.9126C36.0612 20.7894 36.3536 20.7277 36.6751 20.7277C36.9022 20.7277 37.104 20.7459 37.2805 20.7821C37.4569 20.8184 37.5874 20.851 37.672 20.88L37.411 21.895C37.3554 21.8781 37.2853 21.8612 37.2007 21.8443C37.1161 21.8249 37.0219 21.8153 36.9179 21.8153C36.6739 21.8153 36.5011 21.8745 36.3996 21.9929C36.3005 22.1089 36.2509 22.2757 36.2509 22.4932V28.5H34.935ZM41.2518 22.9318V23.9469H37.9602V22.9318H41.2518ZM38.7831 28.5V22.4062C38.7831 22.0316 38.8604 21.7198 39.0151 21.4709C39.1722 21.222 39.3824 21.0359 39.6459 20.9126C39.9093 20.7894 40.2017 20.7277 40.5231 20.7277C40.7503 20.7277 40.9521 20.7459 41.1285 20.7821C41.3049 20.8184 41.4355 20.851 41.52 20.88L41.259 21.895C41.2034 21.8781 41.1334 21.8612 41.0488 21.8443C40.9642 21.8249 40.8699 21.8153 40.766 21.8153C40.5219 21.8153 40.3491 21.8745 40.2476 21.9929C40.1485 22.1089 40.099 22.2757 40.099 22.4932V28.5H38.7831ZM42.2795 28.5V22.9318H43.5918V28.5H42.2795ZM42.9393 22.1415C42.7314 22.1415 42.5526 22.0727 42.4028 21.9349C42.2529 21.7947 42.178 21.6268 42.178 21.431C42.178 21.2328 42.2529 21.0649 42.4028 20.9271C42.5526 20.787 42.7314 20.7169 42.9393 20.7169C43.1495 20.7169 43.3284 20.787 43.4758 20.9271C43.6256 21.0649 43.7005 21.2328 43.7005 21.431C43.7005 21.6268 43.6256 21.7947 43.4758 21.9349C43.3284 22.0727 43.1495 22.1415 42.9393 22.1415ZM47.3701 28.6088C46.8142 28.6088 46.3369 28.4867 45.9381 28.2426C45.5418 27.9985 45.2361 27.6614 45.021 27.2312C44.8083 26.7986 44.702 26.3008 44.702 25.7377C44.702 25.1721 44.8107 24.6731 45.0282 24.2405C45.2458 23.8055 45.5527 23.4671 45.949 23.2255C46.3478 22.9814 46.8191 22.8593 47.3628 22.8593C47.8148 22.8593 48.2147 22.9427 48.5627 23.1094C48.9132 23.2738 49.1923 23.507 49.4001 23.8091C49.608 24.1088 49.7264 24.4592 49.7554 24.8604H48.5011C48.4504 24.5921 48.3295 24.3686 48.1386 24.1897C47.9501 24.0085 47.6975 23.9178 47.3809 23.9178C47.1127 23.9178 46.8771 23.9904 46.674 24.1354C46.471 24.2779 46.3127 24.4834 46.1992 24.7516C46.088 25.0199 46.0324 25.3413 46.0324 25.7159C46.0324 26.0953 46.088 26.4216 46.1992 26.6947C46.3103 26.9654 46.4662 27.1744 46.6668 27.3218C46.8698 27.4668 47.1079 27.5393 47.3809 27.5393C47.5743 27.5393 47.7471 27.5031 47.8993 27.4306C48.054 27.3557 48.1833 27.2481 48.2872 27.108C48.3911 26.9678 48.4624 26.7974 48.5011 26.5968H49.7554C49.724 26.9907 49.608 27.34 49.4074 27.6445C49.2068 27.9466 48.9337 28.1834 48.5881 28.355C48.2425 28.5242 47.8365 28.6088 47.3701 28.6088ZM53.4231 28.5V21.0758H54.7354V23.8526H54.7898C54.8575 23.7173 54.9529 23.5735 55.0762 23.4212C55.1994 23.2665 55.3662 23.1348 55.5764 23.0261C55.7867 22.9149 56.0549 22.8593 56.3812 22.8593C56.8114 22.8593 57.1993 22.9693 57.5449 23.1892C57.8929 23.4067 58.1684 23.7293 58.3714 24.1571C58.5768 24.5825 58.6795 25.1045 58.6795 25.7232C58.6795 26.3346 58.5792 26.8542 58.3786 27.282C58.1781 27.7097 57.905 28.036 57.5594 28.2607C57.2138 28.4855 56.8223 28.5979 56.3848 28.5979C56.0658 28.5979 55.8012 28.5447 55.5909 28.4384C55.3807 28.332 55.2115 28.2039 55.0834 28.0541C54.9577 27.9019 54.8599 27.7581 54.7898 27.6227H54.7137V28.5H53.4231ZM54.71 25.7159C54.71 26.076 54.7608 26.3914 54.8623 26.6621C54.9662 26.9327 55.1148 27.1442 55.3082 27.2965C55.5039 27.4463 55.7408 27.5212 56.0187 27.5212C56.3087 27.5212 56.5516 27.4439 56.7473 27.2892C56.9431 27.1321 57.0905 26.9182 57.1896 26.6476C57.2911 26.3745 57.3419 26.0639 57.3419 25.7159C57.3419 25.3703 57.2923 25.0634 57.1932 24.7951C57.0941 24.5269 56.9467 24.3166 56.751 24.1644C56.5552 24.0121 56.3111 23.936 56.0187 23.936C55.7384 23.936 55.5003 24.0097 55.3045 24.1571C55.1088 24.3045 54.9602 24.5112 54.8587 24.777C54.7596 25.0428 54.71 25.3558 54.71 25.7159ZM60.4214 30.5881C60.2426 30.5881 60.077 30.5736 59.9248 30.5446C59.7749 30.518 59.6553 30.4866 59.5659 30.4503L59.8704 29.428C60.0613 29.4836 60.2317 29.5102 60.3815 29.5078C60.5314 29.5054 60.6631 29.4582 60.7767 29.3664C60.8927 29.277 60.9905 29.1271 61.0703 28.9169L61.1827 28.616L59.1635 22.9318H60.5555L61.8388 27.137H61.8968L63.1837 22.9318H64.5794L62.35 29.1743C62.246 29.4691 62.1083 29.7217 61.9367 29.9319C61.7651 30.1446 61.5549 30.3065 61.3059 30.4177C61.0594 30.5313 60.7646 30.5881 60.4214 30.5881ZM68.0777 28.5V21.0758H69.4226V27.3726H72.6924V28.5H68.0777ZM76.2305 28.6088C75.6868 28.6088 75.2155 28.4891 74.8168 28.2499C74.418 28.0106 74.1086 27.6759 73.8887 27.2457C73.6712 26.8155 73.5625 26.3128 73.5625 25.7377C73.5625 25.1625 73.6712 24.6586 73.8887 24.226C74.1086 23.7934 74.418 23.4575 74.8168 23.2182C75.2155 22.9789 75.6868 22.8593 76.2305 22.8593C76.7743 22.8593 77.2456 22.9789 77.6443 23.2182C78.0431 23.4575 78.3512 23.7934 78.5687 24.226C78.7887 24.6586 78.8986 25.1625 78.8986 25.7377C78.8986 26.3128 78.7887 26.8155 78.5687 27.2457C78.3512 27.6759 78.0431 28.0106 77.6443 28.2499C77.2456 28.4891 76.7743 28.6088 76.2305 28.6088ZM76.2378 27.5575C76.5326 27.5575 76.7791 27.4765 76.9773 27.3146C77.1755 27.1502 77.3229 26.9303 77.4196 26.6548C77.5187 26.3793 77.5682 26.0724 77.5682 25.734C77.5682 25.3933 77.5187 25.0851 77.4196 24.8096C77.3229 24.5317 77.1755 24.3106 76.9773 24.1462C76.7791 23.9819 76.5326 23.8997 76.2378 23.8997C75.9357 23.8997 75.6844 23.9819 75.4838 24.1462C75.2856 24.3106 75.137 24.5317 75.0379 24.8096C74.9412 25.0851 74.8929 25.3933 74.8929 25.734C74.8929 26.0724 74.9412 26.3793 75.0379 26.6548C75.137 26.9303 75.2856 27.1502 75.4838 27.3146C75.6844 27.4765 75.9357 27.5575 76.2378 27.5575ZM82.4413 28.6088C81.8854 28.6088 81.4081 28.4867 81.0094 28.2426C80.613 27.9985 80.3073 27.6614 80.0922 27.2312C79.8795 26.7986 79.7732 26.3008 79.7732 25.7377C79.7732 25.1721 79.8819 24.6731 80.0995 24.2405C80.317 23.8055 80.6239 23.4671 81.0202 23.2255C81.419 22.9814 81.8903 22.8593 82.434 22.8593C82.886 22.8593 83.2859 22.9427 83.6339 23.1094C83.9844 23.2738 84.2635 23.507 84.4713 23.8091C84.6792 24.1088 84.7976 24.4592 84.8266 24.8604H83.5723C83.5216 24.5921 83.4007 24.3686 83.2098 24.1897C83.0213 24.0085 82.7688 23.9178 82.4522 23.9178C82.1839 23.9178 81.9483 23.9904 81.7453 24.1354C81.5423 24.2779 81.384 24.4834 81.2704 24.7516C81.1592 25.0199 81.1036 25.3413 81.1036 25.7159C81.1036 26.0953 81.1592 26.4216 81.2704 26.6947C81.3815 26.9654 81.5374 27.1744 81.738 27.3218C81.941 27.4668 82.1791 27.5393 82.4522 27.5393C82.6455 27.5393 82.8183 27.5031 82.9705 27.4306C83.1252 27.3557 83.2545 27.2481 83.3584 27.108C83.4624 26.9678 83.5337 26.7974 83.5723 26.5968H84.8266C84.7952 26.9907 84.6792 27.34 84.4786 27.6445C84.278 27.9466 84.0049 28.1834 83.6593 28.355C83.3137 28.5242 82.9077 28.6088 82.4413 28.6088ZM87.9705 28.5979C87.5331 28.5979 87.1416 28.4855 86.796 28.2607C86.4504 28.036 86.1773 27.7097 85.9767 27.282C85.7761 26.8542 85.6758 26.3346 85.6758 25.7232C85.6758 25.1045 85.7773 24.5825 85.9803 24.1571C86.1857 23.7293 86.4624 23.4067 86.8105 23.1892C87.1585 22.9693 87.5464 22.8593 87.9741 22.8593C88.3004 22.8593 88.5686 22.9149 88.7789 23.0261C88.9892 23.1348 89.1559 23.2665 89.2792 23.4212C89.4024 23.5735 89.4979 23.7173 89.5655 23.8526H89.6199V22.9318H90.9358V28.5H89.6453V27.6227H89.5655C89.4979 27.7581 89.4 27.9019 89.2719 28.0541C89.1438 28.2039 88.9747 28.332 88.7644 28.4384C88.5541 28.5447 88.2895 28.5979 87.9705 28.5979ZM88.3366 27.5212C88.6146 27.5212 88.8514 27.4463 89.0472 27.2965C89.2429 27.1442 89.3915 26.9327 89.493 26.6621C89.5945 26.3914 89.6453 26.076 89.6453 25.7159C89.6453 25.3558 89.5945 25.0428 89.493 24.777C89.394 24.5112 89.2465 24.3045 89.0508 24.1571C88.8574 24.0097 88.6194 23.936 88.3366 23.936C88.0442 23.936 87.8001 24.0121 87.6044 24.1644C87.4086 24.3166 87.2612 24.5269 87.1621 24.7951C87.063 25.0634 87.0135 25.3703 87.0135 25.7159C87.0135 26.0639 87.063 26.3745 87.1621 26.6476C87.2636 26.9182 87.4122 27.1321 87.608 27.2892C87.8062 27.4439 88.049 27.5212 88.3366 27.5212ZM95.1147 22.9318V23.9469H91.9137V22.9318H95.1147ZM92.704 21.5978H94.0163V26.8252C94.0163 27.0016 94.0429 27.137 94.096 27.2312C94.1516 27.323 94.2241 27.3859 94.3135 27.4197C94.403 27.4535 94.5021 27.4705 94.6108 27.4705C94.693 27.4705 94.7679 27.4644 94.8356 27.4523C94.9056 27.4403 94.9588 27.4294 94.9951 27.4197L95.2162 28.4456C95.1461 28.4698 95.0458 28.4964 94.9153 28.5254C94.7872 28.5544 94.6301 28.5713 94.444 28.5761C94.1154 28.5858 93.8193 28.5363 93.5559 28.4275C93.2925 28.3163 93.0834 28.1447 92.9287 27.9127C92.7765 27.6807 92.7016 27.3907 92.704 27.0427V21.5978ZM96.2122 28.5V22.9318H97.5245V28.5H96.2122ZM96.872 22.1415C96.6641 22.1415 96.4853 22.0727 96.3355 21.9349C96.1856 21.7947 96.1107 21.6268 96.1107 21.431C96.1107 21.2328 96.1856 21.0649 96.3355 20.9271C96.4853 20.787 96.6641 20.7169 96.872 20.7169C97.0822 20.7169 97.2611 20.787 97.4085 20.9271C97.5583 21.0649 97.6332 21.2328 97.6332 21.431C97.6332 21.6268 97.5583 21.7947 97.4085 21.9349C97.2611 22.0727 97.0822 22.1415 96.872 22.1415ZM101.303 28.6088C100.759 28.6088 100.288 28.4891 99.889 28.2499C99.4902 28.0106 99.1809 27.6759 98.9609 27.2457C98.7434 26.8155 98.6347 26.3128 98.6347 25.7377C98.6347 25.1625 98.7434 24.6586 98.9609 24.226C99.1809 23.7934 99.4902 23.4575 99.889 23.2182C100.288 22.9789 100.759 22.8593 101.303 22.8593C101.847 22.8593 102.318 22.9789 102.717 23.2182C103.115 23.4575 103.423 23.7934 103.641 24.226C103.861 24.6586 103.971 25.1625 103.971 25.7377C103.971 26.3128 103.861 26.8155 103.641 27.2457C103.423 27.6759 103.115 28.0106 102.717 28.2499C102.318 28.4891 101.847 28.6088 101.303 28.6088ZM101.31 27.5575C101.605 27.5575 101.851 27.4765 102.05 27.3146C102.248 27.1502 102.395 26.9303 102.492 26.6548C102.591 26.3793 102.64 26.0724 102.64 25.734C102.64 25.3933 102.591 25.0851 102.492 24.8096C102.395 24.5317 102.248 24.3106 102.05 24.1462C101.851 23.9819 101.605 23.8997 101.31 23.8997C101.008 23.8997 100.757 23.9819 100.556 24.1462C100.358 24.3106 100.209 24.5317 100.11 24.8096C100.013 25.0851 99.9651 25.3933 99.9651 25.734C99.9651 26.0724 100.013 26.3793 100.11 26.6548C100.209 26.9303 100.358 27.1502 100.556 27.3146C100.757 27.4765 101.008 27.5575 101.31 27.5575ZM106.397 25.2374V28.5H105.085V22.9318H106.339V23.878H106.404C106.532 23.5662 106.737 23.3185 107.017 23.1348C107.3 22.9512 107.649 22.8593 108.065 22.8593C108.449 22.8593 108.784 22.9415 109.069 23.1058C109.356 23.2702 109.579 23.5082 109.736 23.82C109.895 24.1317 109.974 24.51 109.971 24.9546V28.5H108.659V25.1576C108.659 24.7855 108.562 24.4942 108.369 24.284C108.178 24.0737 107.913 23.9686 107.575 23.9686C107.346 23.9686 107.141 24.0194 106.962 24.1209C106.786 24.2199 106.647 24.3637 106.546 24.5522C106.447 24.7408 106.397 24.9691 106.397 25.2374Z" fill="#1C1C1C"/>
<mask id="mask0_153_10661" style="mask-type:alpha" maskUnits="userSpaceOnUse" x="65" y="71" width="55" height="89">
<path fill-rule="evenodd" clip-rule="evenodd" d="M65.9777 155.733C65.6601 156.918 66.3785 158.138 67.5838 158.368C70.2532 158.876 73.0086 159.143 75.8263 159.143C99.9888 159.143 119.576 139.555 119.576 115.393C119.576 92.4817 101.965 73.6839 79.5414 71.7983C78.3096 71.6948 77.2846 72.6908 77.2846 73.927L77.2846 91.5174C77.2846 92.6698 78.1819 93.6126 79.3197 93.7953C89.7404 95.4677 97.7013 104.501 97.7013 115.393C97.7013 127.474 87.9075 137.268 75.8263 137.268C74.9127 137.268 74.0123 137.212 73.1281 137.103C71.9656 136.96 70.8256 137.64 70.5224 138.771L65.9777 155.733Z" fill="url(#paint0_linear_153_10661)"/>
</mask>
<g mask="url(#mask0_153_10661)">
<path fill-rule="evenodd" clip-rule="evenodd" d="M65.9777 155.733C65.6601 156.918 66.3785 158.138 67.5838 158.368C70.2532 158.876 73.0086 159.143 75.8263 159.143C99.9888 159.143 119.576 139.555 119.576 115.393C119.576 92.4817 101.965 73.6839 79.5414 71.7983C78.3096 71.6948 77.2846 72.6908 77.2846 73.927L77.2846 91.5174C77.2846 92.6698 78.1819 93.6126 79.3197 93.7953C89.7404 95.4677 97.7013 104.501 97.7013 115.393C97.7013 127.474 87.9075 137.268 75.8263 137.268C74.9127 137.268 74.0123 137.212 73.1281 137.103C71.9656 136.96 70.8256 137.64 70.5224 138.771L65.9777 155.733Z" fill="url(#paint1_linear_153_10661)"/>
<path fill-rule="evenodd" clip-rule="evenodd" d="M65.9777 155.733C65.6601 156.918 66.3785 158.138 67.5838 158.368C70.2532 158.876 73.0086 159.143 75.8263 159.143C99.9888 159.143 119.576 139.555 119.576 115.393C119.576 92.4817 101.965 73.6839 79.5414 71.7983C78.3096 71.6948 77.2846 72.6908 77.2846 73.927L77.2846 91.5174C77.2846 92.6698 78.1819 93.6126 79.3197 93.7953C89.7404 95.4677 97.7013 104.501 97.7013 115.393C97.7013 127.474 87.9075 137.268 75.8263 137.268C74.9127 137.268 74.0123 137.212 73.1281 137.103C71.9656 136.96 70.8256 137.64 70.5224 138.771L65.9777 155.733Z" fill="#1C1C1C" style="mix-blend-mode:screen"/>
</g>
<mask id="mask1_153_10661" style="mask-type:alpha" maskUnits="userSpaceOnUse" x="32" y="105" width="38" height="53">
<path fill-rule="evenodd" clip-rule="evenodd" d="M32.1978 115.714C32.1978 112.847 32.4737 110.043 33.0004 107.329C33.308 105.745 34.92 104.818 36.479 105.236L51.9855 109.391C53.536 109.807 54.4386 111.397 54.2408 112.99C54.1299 113.883 54.0728 114.792 54.0728 115.714C54.0728 124.647 59.4269 132.329 67.101 135.727C68.5492 136.368 69.4465 137.927 69.0366 139.457L64.8735 154.994C64.4531 156.563 62.8273 157.495 61.2969 156.951C44.3398 150.926 32.1978 134.738 32.1978 115.714Z" fill="url(#paint2_linear_153_10661)"/>
</mask>
<g mask="url(#mask1_153_10661)">
<path fill-rule="evenodd" clip-rule="evenodd" d="M32.1978 115.714C32.1978 112.847 32.4737 110.043 33.0004 107.329C33.308 105.745 34.92 104.818 36.479 105.236L51.9855 109.391C53.536 109.807 54.4386 111.397 54.2408 112.99C54.1299 113.883 54.0728 114.792 54.0728 115.714C54.0728 124.647 59.4269 132.329 67.101 135.727C68.5492 136.368 69.4465 137.927 69.0366 139.457L64.8735 154.994C64.4531 156.563 62.8273 157.495 61.2969 156.951C44.3398 150.926 32.1978 134.738 32.1978 115.714Z" fill="#B1E3FF"/>
</g>
<mask id="mask2_153_10661" style="mask-type:alpha" maskUnits="userSpaceOnUse" x="34" y="78" width="30" height="30">
<path fill-rule="evenodd" clip-rule="evenodd" d="M55.5359 80.0375C54.7279 78.6379 52.9296 78.1543 51.5914 79.0602C44.1722 84.0828 38.3767 91.3228 35.1567 99.8287C34.5739 101.368 35.5054 103.029 37.0954 103.455L52.6985 107.636C54.1863 108.035 55.7094 107.196 56.3796 105.809C57.8459 102.775 59.9923 100.131 62.6209 98.0748C63.8824 97.0882 64.3647 95.3294 63.5639 93.9424L55.5359 80.0375Z" fill="url(#paint3_linear_153_10661)"/>
</mask>
<g mask="url(#mask2_153_10661)">
<path fill-rule="evenodd" clip-rule="evenodd" d="M55.5359 80.0375C54.7279 78.6379 52.9296 78.1543 51.5914 79.0602C44.1722 84.0828 38.3767 91.3228 35.1567 99.8287C34.5739 101.368 35.5054 103.029 37.0954 103.455L52.6985 107.636C54.1863 108.035 55.7094 107.196 56.3796 105.809C57.8459 102.775 59.9923 100.131 62.6209 98.0748C63.8824 97.0882 64.3647 95.3294 63.5639 93.9424L55.5359 80.0375Z" fill="#A1E3CB"/>
</g>
<mask id="mask3_153_10661" style="mask-type:alpha" maskUnits="userSpaceOnUse" x="56" y="71" width="20" height="24">
<path fill-rule="evenodd" clip-rule="evenodd" d="M64.5821 93.4699C65.3543 94.8074 67.0302 95.2899 68.4871 94.7771C69.8802 94.2867 71.3379 93.9334 72.844 93.7333C74.4408 93.5212 75.7523 92.2358 75.7523 90.625V74.5833C75.7523 72.9725 74.4449 71.6565 72.8375 71.7622C67.4685 72.1154 62.3641 73.4371 57.6972 75.5542C56.2003 76.2333 55.6874 78.0638 56.5093 79.4874L64.5821 93.4699Z" fill="url(#paint4_linear_153_10661)"/>
</mask>
<g mask="url(#mask3_153_10661)">
<path fill-rule="evenodd" clip-rule="evenodd" d="M64.5821 93.4699C65.3543 94.8074 67.0302 95.2899 68.4871 94.7771C69.8802 94.2867 71.3379 93.9334 72.844 93.7333C74.4408 93.5212 75.7523 92.2358 75.7523 90.625V74.5833C75.7523 72.9725 74.4449 71.6565 72.8375 71.7622C67.4685 72.1154 62.3641 73.4371 57.6972 75.5542C56.2003 76.2333 55.6874 78.0638 56.5093 79.4874L64.5821 93.4699Z" fill="#A8C5DA"/>
</g>
<path d="M159.688 76.9167C159.688 78.1248 158.708 79.1042 157.5 79.1042C156.292 79.1042 155.312 78.1248 155.312 76.9167C155.312 75.7085 156.292 74.7292 157.5 74.7292C158.708 74.7292 159.688 75.7085 159.688 76.9167Z" fill="#1C1C1C"/>
<path d="M168.28 73.553H169.051V77.7665C169.051 78.2015 168.948 78.5899 168.743 78.9317C168.54 79.2714 168.253 79.5397 167.883 79.7364C167.512 79.9312 167.077 80.0285 166.577 80.0285C166.078 80.0285 165.643 79.9312 165.272 79.7364C164.902 79.5397 164.614 79.2714 164.409 78.9317C164.206 78.5899 164.104 78.2015 164.104 77.7665V73.553H164.875V77.7043C164.875 78.015 164.943 78.2916 165.08 78.5339C165.216 78.7742 165.411 78.9638 165.664 79.1026C165.919 79.2393 166.223 79.3076 166.577 79.3076C166.932 79.3076 167.236 79.2393 167.491 79.1026C167.746 78.9638 167.941 78.7742 168.075 78.5339C168.212 78.2916 168.28 78.015 168.28 77.7043V73.553ZM171.224 77.0456V79.9167H170.49V75.1439H171.199V75.8897H171.261C171.373 75.6473 171.543 75.4526 171.77 75.3055C171.998 75.1564 172.292 75.0818 172.653 75.0818C172.976 75.0818 173.259 75.1481 173.501 75.2807C173.744 75.4112 173.932 75.61 174.067 75.8773C174.201 76.1424 174.269 76.478 174.269 76.884V79.9167H173.535V76.9337C173.535 76.5588 173.438 76.2667 173.243 76.0575C173.049 75.8462 172.781 75.7405 172.442 75.7405C172.208 75.7405 171.998 75.7913 171.814 75.8928C171.632 75.9943 171.488 76.1424 171.382 76.3371C171.276 76.5318 171.224 76.768 171.224 77.0456ZM175.609 79.9167V75.1439H176.342V79.9167H175.609ZM175.982 74.3485C175.839 74.3485 175.715 74.2998 175.612 74.2024C175.51 74.1051 175.46 73.988 175.46 73.8513C175.46 73.7146 175.51 73.5976 175.612 73.5002C175.715 73.4028 175.839 73.3542 175.982 73.3542C176.124 73.3542 176.247 73.4028 176.348 73.5002C176.452 73.5976 176.504 73.7146 176.504 73.8513C176.504 73.988 176.452 74.1051 176.348 74.2024C176.247 74.2998 176.124 74.3485 175.982 74.3485ZM179.761 75.1439V75.7654H177.287V75.1439H179.761ZM178.008 74.0005H178.742V78.5495C178.742 78.7566 178.772 78.912 178.832 79.0156C178.894 79.1171 178.973 79.1854 179.068 79.2206C179.165 79.2538 179.268 79.2704 179.375 79.2704C179.456 79.2704 179.522 79.2662 179.574 79.2579C179.626 79.2476 179.668 79.2393 179.699 79.2331L179.848 79.8918C179.798 79.9105 179.729 79.9291 179.64 79.9477C179.55 79.9685 179.438 79.9788 179.301 79.9788C179.094 79.9788 178.891 79.9343 178.692 79.8452C178.495 79.7561 178.331 79.6204 178.201 79.4382C178.072 79.2559 178.008 79.0259 178.008 78.7483V74.0005ZM182.814 80.0161C182.354 80.0161 181.957 79.9146 181.624 79.7116C181.292 79.5065 181.036 79.2206 180.856 78.854C180.678 78.4853 180.589 78.0565 180.589 77.5676C180.589 77.0787 180.678 76.6478 180.856 76.275C181.036 75.9 181.287 75.608 181.608 75.3987C181.931 75.1874 182.308 75.0818 182.739 75.0818C182.988 75.0818 183.233 75.1232 183.475 75.2061C183.718 75.2889 183.938 75.4236 184.137 75.61C184.336 75.7944 184.495 76.0388 184.613 76.3433C184.731 76.6478 184.79 77.0228 184.79 77.4682V77.7789H181.111V77.145H184.044C184.044 76.8757 183.99 76.6354 183.882 76.4241C183.777 76.2128 183.626 76.0461 183.429 75.9239C183.234 75.8016 183.004 75.7405 182.739 75.7405C182.447 75.7405 182.194 75.813 181.981 75.958C181.77 76.101 181.607 76.2874 181.493 76.5173C181.379 76.7473 181.322 76.9938 181.322 77.2569V77.6795C181.322 78.0399 181.384 78.3454 181.509 78.5961C181.635 78.8447 181.81 79.0342 182.034 79.1647C182.257 79.2931 182.517 79.3574 182.814 79.3574C183.006 79.3574 183.18 79.3304 183.336 79.2766C183.493 79.2206 183.629 79.1378 183.743 79.028C183.857 78.9161 183.945 78.7773 184.007 78.6116L184.715 78.8105C184.641 79.0508 184.515 79.2621 184.339 79.4444C184.163 79.6246 183.946 79.7654 183.687 79.867C183.428 79.9664 183.137 80.0161 182.814 80.0161ZM187.707 80.0161C187.31 80.0161 186.959 79.9156 186.654 79.7147C186.35 79.5117 186.111 79.2258 185.939 78.8571C185.768 78.4863 185.682 78.0482 185.682 77.5427C185.682 77.0414 185.768 76.6064 185.939 76.2377C186.111 75.869 186.351 75.5841 186.657 75.3832C186.964 75.1823 187.318 75.0818 187.72 75.0818C188.031 75.0818 188.276 75.1336 188.456 75.2372C188.639 75.3387 188.777 75.4547 188.873 75.5852C188.97 75.7136 189.046 75.8192 189.1 75.9021H189.162V73.553H189.895V79.9167H189.187V79.1834H189.1C189.046 79.2704 188.969 79.3802 188.87 79.5127C188.77 79.6432 188.628 79.7603 188.444 79.8638C188.26 79.9653 188.014 80.0161 187.707 80.0161ZM187.807 79.3574C188.101 79.3574 188.35 79.2807 188.553 79.1274C188.756 78.9721 188.91 78.7577 189.016 78.4842C189.121 78.2087 189.174 77.8907 189.174 77.5303C189.174 77.174 189.122 76.8622 189.019 76.595C188.915 76.3257 188.762 76.1165 188.559 75.9674C188.356 75.8161 188.105 75.7405 187.807 75.7405C187.496 75.7405 187.237 75.8203 187.03 75.9798C186.825 76.1372 186.671 76.3516 186.567 76.623C186.466 76.8923 186.415 77.1947 186.415 77.5303C186.415 77.87 186.467 78.1787 186.57 78.4563C186.676 78.7318 186.831 78.9514 187.036 79.115C187.243 79.2766 187.5 79.3574 187.807 79.3574ZM197.38 75.1439C197.343 74.8291 197.192 74.5846 196.927 74.4106C196.662 74.2366 196.336 74.1496 195.951 74.1496C195.669 74.1496 195.423 74.1952 195.211 74.2863C195.002 74.3775 194.839 74.5028 194.721 74.6623C194.605 74.8218 194.547 75.0031 194.547 75.2061C194.547 75.3759 194.587 75.522 194.668 75.6442C194.751 75.7644 194.856 75.8648 194.985 75.9456C195.113 76.0243 195.248 76.0896 195.389 76.1414C195.529 76.1911 195.659 76.2315 195.777 76.2625L196.423 76.4366C196.589 76.4801 196.773 76.5401 196.976 76.6168C197.181 76.6934 197.377 76.798 197.564 76.9306C197.752 77.0611 197.908 77.2289 198.03 77.434C198.152 77.6391 198.213 77.8907 198.213 78.189C198.213 78.5329 198.123 78.8436 197.943 79.1212C197.765 79.3988 197.504 79.6194 197.16 79.7831C196.818 79.9467 196.403 80.0285 195.914 80.0285C195.458 80.0285 195.063 79.955 194.73 79.8079C194.398 79.6608 194.137 79.4558 193.947 79.1927C193.758 78.9296 193.652 78.6241 193.627 78.276H194.422C194.443 78.5163 194.524 78.7152 194.665 78.8726C194.808 79.028 194.988 79.144 195.205 79.2206C195.425 79.2952 195.661 79.3325 195.914 79.3325C196.208 79.3325 196.472 79.2849 196.706 79.1896C196.94 79.0922 197.126 78.9576 197.262 78.7856C197.399 78.6116 197.467 78.4086 197.467 78.1766C197.467 77.9653 197.408 77.7934 197.29 77.6608C197.172 77.5282 197.017 77.4205 196.824 77.3377C196.632 77.2548 196.423 77.1823 196.2 77.1201L195.417 76.8964C194.919 76.7535 194.526 76.5495 194.236 76.2843C193.946 76.0191 193.801 75.6722 193.801 75.2434C193.801 74.8871 193.897 74.5764 194.09 74.3112C194.284 74.044 194.546 73.8368 194.873 73.6898C195.202 73.5406 195.57 73.466 195.976 73.466C196.386 73.466 196.751 73.5396 197.07 73.6866C197.389 73.8316 197.641 74.0305 197.828 74.2832C198.016 74.536 198.116 74.8229 198.126 75.1439H197.38ZM201.456 75.1439V75.7654H198.983V75.1439H201.456ZM199.704 74.0005H200.437V78.5495C200.437 78.7566 200.467 78.912 200.527 79.0156C200.589 79.1171 200.668 79.1854 200.763 79.2206C200.861 79.2538 200.963 79.2704 201.071 79.2704C201.152 79.2704 201.218 79.2662 201.27 79.2579C201.322 79.2476 201.363 79.2393 201.394 79.2331L201.543 79.8918C201.494 79.9105 201.424 79.9291 201.335 79.9477C201.246 79.9685 201.133 79.9788 200.996 79.9788C200.789 79.9788 200.586 79.9343 200.387 79.8452C200.191 79.7561 200.027 79.6204 199.896 79.4382C199.768 79.2559 199.704 79.0259 199.704 78.7483V74.0005ZM204.31 80.0161C203.913 80.0161 203.561 79.9156 203.257 79.7147C202.952 79.5117 202.714 79.2258 202.542 78.8571C202.37 78.4863 202.284 78.0482 202.284 77.5427C202.284 77.0414 202.37 76.6064 202.542 76.2377C202.714 75.869 202.953 75.5841 203.26 75.3832C203.567 75.1823 203.921 75.0818 204.323 75.0818C204.633 75.0818 204.879 75.1336 205.059 75.2372C205.241 75.3387 205.38 75.4547 205.475 75.5852C205.573 75.7136 205.648 75.8192 205.702 75.9021H205.764V75.1439H206.498V79.9167H205.789V79.1834H205.702C205.648 79.2704 205.572 79.3802 205.472 79.5127C205.373 79.6432 205.231 79.7603 205.047 79.8638C204.862 79.9653 204.617 80.0161 204.31 80.0161ZM204.41 79.3574C204.704 79.3574 204.952 79.2807 205.155 79.1274C205.358 78.9721 205.513 78.7577 205.618 78.4842C205.724 78.2087 205.777 77.8907 205.777 77.5303C205.777 77.174 205.725 76.8622 205.622 76.595C205.518 76.3257 205.365 76.1165 205.162 75.9674C204.959 75.8161 204.708 75.7405 204.41 75.7405C204.099 75.7405 203.84 75.8203 203.633 75.9798C203.428 76.1372 203.273 76.3516 203.17 76.623C203.068 76.8923 203.018 77.1947 203.018 77.5303C203.018 77.87 203.069 78.1787 203.173 78.4563C203.279 78.7318 203.434 78.9514 203.639 79.115C203.846 79.2766 204.103 79.3574 204.41 79.3574ZM210.018 75.1439V75.7654H207.545V75.1439H210.018ZM208.266 74.0005H208.999V78.5495C208.999 78.7566 209.029 78.912 209.089 79.0156C209.151 79.1171 209.23 79.1854 209.325 79.2206C209.423 79.2538 209.525 79.2704 209.633 79.2704C209.714 79.2704 209.78 79.2662 209.832 79.2579C209.884 79.2476 209.925 79.2393 209.956 79.2331L210.105 79.8918C210.056 79.9105 209.986 79.9291 209.897 79.9477C209.808 79.9685 209.695 79.9788 209.558 79.9788C209.351 79.9788 209.148 79.9343 208.949 79.8452C208.753 79.7561 208.589 79.6204 208.458 79.4382C208.33 79.2559 208.266 79.0259 208.266 78.7483V74.0005ZM213.071 80.0161C212.611 80.0161 212.215 79.9146 211.881 79.7116C211.55 79.5065 211.294 79.2206 211.114 78.854C210.935 78.4853 210.846 78.0565 210.846 77.5676C210.846 77.0787 210.935 76.6478 211.114 76.275C211.294 75.9 211.544 75.608 211.866 75.3987C212.189 75.1874 212.566 75.0818 212.997 75.0818C213.245 75.0818 213.491 75.1232 213.733 75.2061C213.975 75.2889 214.196 75.4236 214.395 75.61C214.594 75.7944 214.752 76.0388 214.87 76.3433C214.988 76.6478 215.047 77.0228 215.047 77.4682V77.7789H211.368V77.145H214.302C214.302 76.8757 214.248 76.6354 214.14 76.4241C214.034 76.2128 213.883 76.0461 213.686 75.9239C213.492 75.8016 213.262 75.7405 212.997 75.7405C212.705 75.7405 212.452 75.813 212.238 75.958C212.027 76.101 211.865 76.2874 211.751 76.5173C211.637 76.7473 211.58 76.9938 211.58 77.2569V77.6795C211.58 78.0399 211.642 78.3454 211.766 78.5961C211.892 78.8447 212.068 79.0342 212.291 79.1647C212.515 79.2931 212.775 79.3574 213.071 79.3574C213.264 79.3574 213.438 79.3304 213.593 79.2766C213.751 79.2206 213.886 79.1378 214 79.028C214.114 78.9161 214.202 78.7773 214.264 78.6116L214.973 78.8105C214.898 79.0508 214.773 79.2621 214.597 79.4444C214.421 79.6246 214.203 79.7654 213.944 79.867C213.685 79.9664 213.394 80.0161 213.071 80.0161ZM219.544 76.2128L218.885 76.3993C218.843 76.2895 218.782 76.1828 218.701 76.0792C218.623 75.9736 218.515 75.8866 218.378 75.8182C218.242 75.7499 218.067 75.7157 217.853 75.7157C217.561 75.7157 217.318 75.783 217.123 75.9176C216.93 76.0502 216.834 76.219 216.834 76.4241C216.834 76.6064 216.9 76.7504 217.033 76.856C217.165 76.9617 217.373 77.0497 217.654 77.1201L218.363 77.2942C218.79 77.3977 219.107 77.5562 219.317 77.7696C219.526 77.9809 219.631 78.2533 219.631 78.5868C219.631 78.8602 219.552 79.1046 219.394 79.3201C219.239 79.5355 219.022 79.7054 218.742 79.8297C218.462 79.954 218.137 80.0161 217.766 80.0161C217.279 80.0161 216.876 79.9105 216.557 79.6992C216.238 79.4879 216.037 79.1792 215.952 78.7732L216.648 78.5992C216.714 78.8561 216.839 79.0487 217.024 79.1771C217.21 79.3056 217.453 79.3698 217.754 79.3698C218.096 79.3698 218.367 79.2973 218.568 79.1523C218.771 79.0052 218.872 78.8291 218.872 78.6241C218.872 78.4583 218.814 78.3195 218.698 78.2077C218.582 78.0938 218.404 78.0088 218.164 77.9529L217.368 77.7665C216.931 77.6629 216.61 77.5023 216.405 77.2848C216.202 77.0653 216.101 76.7908 216.101 76.4614C216.101 76.1921 216.176 75.9539 216.328 75.7467C216.481 75.5396 216.689 75.377 216.952 75.2589C217.217 75.1408 217.518 75.0818 217.853 75.0818C218.326 75.0818 218.696 75.1854 218.966 75.3925C219.237 75.5997 219.43 75.8731 219.544 76.2128Z" fill="#1C1C1C"/>
<path d="M257.476 78.3258H258.259C258.282 78.5412 258.355 78.7235 258.479 78.8726C258.606 79.0197 258.769 79.1316 258.97 79.2082C259.171 79.2828 259.394 79.3201 259.638 79.3201C259.904 79.3201 260.142 79.2755 260.353 79.1865C260.564 79.0974 260.732 78.9648 260.856 78.7887C260.981 78.6106 261.043 78.39 261.043 78.1269C261.043 77.897 260.989 77.6836 260.881 77.4868C260.774 77.2879 260.601 77.1274 260.362 77.0052C260.124 76.883 259.808 76.8219 259.415 76.8219H258.905V76.2004L260.496 74.2863V74.2366H257.787V73.553H261.553V74.1123L259.85 76.1755V76.2253C260.123 76.2377 260.378 76.2936 260.614 76.3931C260.852 76.4925 261.059 76.6271 261.236 76.797C261.414 76.9669 261.553 77.1647 261.652 77.3905C261.751 77.6163 261.801 77.8617 261.801 78.1269C261.801 78.4894 261.708 78.8126 261.521 79.0964C261.337 79.3781 261.081 79.5997 260.754 79.7613C260.429 79.9229 260.053 80.0037 259.626 80.0037C259.249 80.0037 258.902 79.9374 258.585 79.8048C258.268 79.6722 258.01 79.4806 257.811 79.23C257.613 78.9793 257.501 78.6779 257.476 78.3258ZM265.108 80.0037C264.681 80.0037 264.304 79.9281 263.977 79.7768C263.652 79.6236 263.398 79.4133 263.216 79.1461C263.033 78.8768 262.943 78.5702 262.945 78.2263C262.943 77.957 262.996 77.7085 263.104 77.4806C263.212 77.2507 263.359 77.059 263.545 76.9057C263.734 76.7504 263.944 76.652 264.176 76.6106V76.5733C263.871 76.4946 263.629 76.3237 263.449 76.0606C263.268 75.7954 263.179 75.494 263.181 75.1564C263.179 74.8332 263.261 74.5442 263.427 74.2894C263.593 74.0347 263.821 73.8337 264.111 73.6866C264.403 73.5396 264.735 73.466 265.108 73.466C265.477 73.466 265.806 73.5396 266.096 73.6866C266.386 73.8337 266.614 74.0347 266.78 74.2894C266.947 74.5442 267.032 74.8332 267.034 75.1564C267.032 75.494 266.94 75.7954 266.758 76.0606C266.578 76.3237 266.338 76.4946 266.04 76.5733V76.6106C266.27 76.652 266.477 76.7504 266.662 76.9057C266.846 77.059 266.993 77.2507 267.103 77.4806C267.213 77.7085 267.269 77.957 267.271 78.2263C267.269 78.5702 267.175 78.8768 266.991 79.1461C266.809 79.4133 266.555 79.6236 266.23 79.7768C265.907 79.9281 265.533 80.0037 265.108 80.0037ZM265.108 79.3201C265.396 79.3201 265.644 79.2735 265.854 79.1803C266.063 79.087 266.225 78.9555 266.338 78.7856C266.452 78.6158 266.51 78.4169 266.512 78.189C266.51 77.9487 266.448 77.7364 266.326 77.5521C266.204 77.3677 266.037 77.2227 265.826 77.117C265.617 77.0114 265.377 76.9586 265.108 76.9586C264.837 76.9586 264.594 77.0114 264.381 77.117C264.17 77.2227 264.003 77.3677 263.881 77.5521C263.76 77.7364 263.701 77.9487 263.704 78.189C263.701 78.4169 263.756 78.6158 263.868 78.7856C263.982 78.9555 264.145 79.087 264.356 79.1803C264.567 79.2735 264.818 79.3201 265.108 79.3201ZM265.108 76.2998C265.336 76.2998 265.538 76.2543 265.714 76.1631C265.892 76.072 266.032 75.9446 266.133 75.7809C266.235 75.6173 266.287 75.4257 266.289 75.2061C266.287 74.9906 266.236 74.8032 266.136 74.6437C266.037 74.4821 265.899 74.3578 265.723 74.2708C265.547 74.1817 265.342 74.1372 265.108 74.1372C264.87 74.1372 264.662 74.1817 264.483 74.2708C264.305 74.3578 264.168 74.4821 264.07 74.6437C263.973 74.8032 263.925 74.9906 263.927 75.2061C263.925 75.4257 263.974 75.6173 264.073 75.7809C264.175 75.9446 264.315 76.072 264.493 76.1631C264.671 76.2543 264.876 76.2998 265.108 76.2998ZM268.812 79.9664C268.659 79.9664 268.527 79.9115 268.417 79.8017C268.307 79.6919 268.253 79.5604 268.253 79.4071C268.253 79.2538 268.307 79.1222 268.417 79.0125C268.527 78.9027 268.659 78.8478 268.812 78.8478C268.965 78.8478 269.097 78.9027 269.206 79.0125C269.316 79.1222 269.371 79.2538 269.371 79.4071C269.371 79.5086 269.345 79.6018 269.293 79.6867C269.244 79.7717 269.176 79.84 269.091 79.8918C269.009 79.9415 268.915 79.9664 268.812 79.9664ZM270.525 77.9032C270.53 77.7043 270.56 77.4982 270.616 77.2848C270.671 77.0715 270.766 76.8343 270.898 76.5733C271.031 76.3123 271.213 76.0098 271.445 75.666L272.875 73.553H273.72L272.042 76.0015C272.116 75.9767 272.193 75.956 272.272 75.9394C272.353 75.9228 272.433 75.9145 272.514 75.9145C272.899 75.9145 273.243 76.0036 273.546 76.1818C273.85 76.3599 274.089 76.6033 274.263 76.912C274.44 77.2206 274.528 77.5717 274.528 77.9653C274.528 78.3589 274.441 78.709 274.267 79.0156C274.095 79.3221 273.857 79.5635 273.555 79.7396C273.255 79.9156 272.912 80.0037 272.527 80.0037C272.137 80.0037 271.791 79.9136 271.489 79.7333C271.186 79.551 270.949 79.3025 270.777 78.9876C270.605 78.6707 270.521 78.3092 270.525 77.9032ZM271.259 77.9529C271.259 78.2222 271.313 78.4604 271.42 78.6676C271.528 78.8747 271.677 79.0373 271.868 79.1554C272.058 79.2735 272.278 79.3325 272.527 79.3325C272.775 79.3325 272.995 79.2745 273.185 79.1585C273.376 79.0404 273.525 78.8788 273.633 78.6738C273.74 78.4666 273.794 78.2305 273.794 77.9653C273.794 77.696 273.74 77.4588 273.633 77.2538C273.525 77.0487 273.376 76.8881 273.185 76.7721C272.995 76.6561 272.775 76.5981 272.527 76.5981C272.278 76.5981 272.058 76.6561 271.868 76.7721C271.677 76.8861 271.528 77.0456 271.42 77.2507C271.313 77.4537 271.259 77.6877 271.259 77.9529ZM278.943 78.7235V78.3879C278.943 78.1559 278.991 77.9436 279.086 77.7509C279.183 77.5562 279.324 77.4008 279.509 77.2848C279.695 77.1668 279.921 77.1077 280.186 77.1077C280.455 77.1077 280.681 77.1668 280.863 77.2848C281.046 77.4008 281.183 77.5562 281.277 77.7509C281.37 77.9436 281.416 78.1559 281.416 78.3879V78.7235C281.416 78.9555 281.369 79.1689 281.273 79.3636C281.18 79.5562 281.041 79.7116 280.857 79.8297C280.675 79.9457 280.451 80.0037 280.186 80.0037C279.917 80.0037 279.69 79.9457 279.505 79.8297C279.321 79.7116 279.181 79.5562 279.086 79.3636C278.991 79.1689 278.943 78.9555 278.943 78.7235ZM279.577 78.3879V78.7235C279.577 78.9161 279.622 79.0891 279.714 79.2424C279.805 79.3936 279.962 79.4692 280.186 79.4692C280.403 79.4692 280.557 79.3936 280.646 79.2424C280.737 79.0891 280.782 78.9161 280.782 78.7235V78.3879C280.782 78.1953 280.739 78.0233 280.652 77.8721C280.565 77.7188 280.41 77.6422 280.186 77.6422C279.968 77.6422 279.812 77.7188 279.717 77.8721C279.623 78.0233 279.577 78.1953 279.577 78.3879ZM275.774 75.0818V74.7462C275.774 74.5142 275.821 74.3019 275.917 74.1092C276.014 73.9145 276.155 73.7591 276.339 73.6431C276.526 73.5251 276.751 73.466 277.016 73.466C277.286 73.466 277.512 73.5251 277.694 73.6431C277.876 73.7591 278.014 73.9145 278.107 74.1092C278.2 74.3019 278.247 74.5142 278.247 74.7462V75.0818C278.247 75.3138 278.199 75.5272 278.104 75.7219C278.011 75.9145 277.872 76.0699 277.688 76.188C277.505 76.304 277.282 76.362 277.016 76.362C276.747 76.362 276.52 76.304 276.336 76.188C276.152 76.0699 276.012 75.9145 275.917 75.7219C275.821 75.5272 275.774 75.3138 275.774 75.0818ZM276.407 74.7462V75.0818C276.407 75.2744 276.453 75.4474 276.544 75.6007C276.635 75.7519 276.793 75.8275 277.016 75.8275C277.234 75.8275 277.387 75.7519 277.476 75.6007C277.568 75.4474 277.613 75.2744 277.613 75.0818V74.7462C277.613 74.5536 277.57 74.3816 277.483 74.2304C277.396 74.0771 277.24 74.0005 277.016 74.0005C276.799 74.0005 276.643 74.0771 276.547 74.2304C276.454 74.3816 276.407 74.5536 276.407 74.7462ZM276.01 79.9167L280.385 73.553H281.093L276.718 79.9167H276.01Z" fill="#1C1C1C"/>
<path d="M159.688 102.583C159.688 103.791 158.708 104.771 157.5 104.771C156.292 104.771 155.312 103.791 155.312 102.583C155.312 101.375 156.292 100.396 157.5 100.396C158.708 100.396 159.688 101.375 159.688 102.583Z" fill="#A1E3CB"/>
<path d="M169.225 101.208H168.454C168.409 100.987 168.329 100.792 168.215 100.624C168.103 100.456 167.966 100.315 167.805 100.202C167.645 100.086 167.468 99.9986 167.273 99.9406C167.079 99.8826 166.876 99.8536 166.664 99.8536C166.279 99.8536 165.93 99.9509 165.617 100.146C165.307 100.34 165.059 100.627 164.875 101.006C164.692 101.385 164.601 101.85 164.601 102.401C164.601 102.953 164.692 103.418 164.875 103.797C165.059 104.176 165.307 104.463 165.617 104.657C165.93 104.852 166.279 104.949 166.664 104.949C166.876 104.949 167.079 104.92 167.273 104.862C167.468 104.804 167.645 104.718 167.805 104.605C167.966 104.489 168.103 104.347 168.215 104.179C168.329 104.009 168.409 103.814 168.454 103.595H169.225C169.167 103.92 169.061 104.211 168.908 104.468C168.755 104.725 168.564 104.943 168.336 105.123C168.108 105.302 167.852 105.437 167.569 105.53C167.287 105.624 166.986 105.67 166.664 105.67C166.122 105.67 165.639 105.538 165.216 105.273C164.794 105.007 164.461 104.63 164.219 104.142C163.977 103.653 163.856 103.073 163.856 102.401C163.856 101.73 163.977 101.15 164.219 100.661C164.461 100.173 164.794 99.7956 165.216 99.5304C165.639 99.2652 166.122 99.1327 166.664 99.1327C166.986 99.1327 167.287 99.1793 167.569 99.2725C167.852 99.3657 168.108 99.5024 168.336 99.6827C168.564 99.8608 168.755 100.078 168.908 100.335C169.061 100.59 169.167 100.881 169.225 101.208ZM172.173 105.683C171.775 105.683 171.424 105.582 171.119 105.381C170.815 105.178 170.577 104.892 170.405 104.524C170.233 104.153 170.147 103.715 170.147 103.209C170.147 102.708 170.233 102.273 170.405 101.904C170.577 101.536 170.816 101.251 171.123 101.05C171.429 100.849 171.783 100.748 172.185 100.748C172.496 100.748 172.741 100.8 172.922 100.904C173.104 101.005 173.243 101.121 173.338 101.252C173.435 101.38 173.511 101.486 173.565 101.569H173.627V100.811H174.36V105.583H173.652V104.85H173.565C173.511 104.937 173.434 105.047 173.335 105.179C173.236 105.31 173.094 105.427 172.909 105.53C172.725 105.632 172.479 105.683 172.173 105.683ZM172.272 105.024C172.566 105.024 172.815 104.947 173.018 104.794C173.221 104.639 173.375 104.424 173.481 104.151C173.587 103.875 173.639 103.557 173.639 103.197C173.639 102.841 173.588 102.529 173.484 102.262C173.381 101.992 173.227 101.783 173.024 101.634C172.821 101.483 172.571 101.407 172.272 101.407C171.962 101.407 171.703 101.487 171.495 101.646C171.29 101.804 171.136 102.018 171.032 102.29C170.931 102.559 170.88 102.861 170.88 103.197C170.88 103.537 170.932 103.845 171.036 104.123C171.141 104.398 171.297 104.618 171.502 104.782C171.709 104.943 171.966 105.024 172.272 105.024ZM176.539 102.712V105.583H175.805V100.811H176.514V101.556H176.576C176.688 101.314 176.858 101.119 177.085 100.972C177.313 100.823 177.607 100.748 177.968 100.748C178.291 100.748 178.574 100.815 178.816 100.947C179.058 101.078 179.247 101.277 179.382 101.544C179.516 101.809 179.584 102.145 179.584 102.551V105.583H178.85V102.6C178.85 102.225 178.753 101.933 178.558 101.724C178.363 101.513 178.096 101.407 177.757 101.407C177.522 101.407 177.313 101.458 177.129 101.559C176.947 101.661 176.803 101.809 176.697 102.004C176.591 102.198 176.539 102.435 176.539 102.712ZM182.726 105.683C182.328 105.683 181.977 105.582 181.672 105.381C181.368 105.178 181.13 104.892 180.958 104.524C180.786 104.153 180.7 103.715 180.7 103.209C180.7 102.708 180.786 102.273 180.958 101.904C181.13 101.536 181.369 101.251 181.676 101.05C181.982 100.849 182.336 100.748 182.738 100.748C183.049 100.748 183.294 100.8 183.475 100.904C183.657 101.005 183.796 101.121 183.891 101.252C183.988 101.38 184.064 101.486 184.118 101.569H184.18V100.811H184.913V105.583H184.205V104.85H184.118C184.064 104.937 183.987 105.047 183.888 105.179C183.788 105.31 183.647 105.427 183.462 105.53C183.278 105.632 183.032 105.683 182.726 105.683ZM182.825 105.024C183.119 105.024 183.368 104.947 183.571 104.794C183.774 104.639 183.928 104.424 184.034 104.151C184.14 103.875 184.192 103.557 184.192 103.197C184.192 102.841 184.141 102.529 184.037 102.262C183.933 101.992 183.78 101.783 183.577 101.634C183.374 101.483 183.124 101.407 182.825 101.407C182.515 101.407 182.256 101.487 182.048 101.646C181.843 101.804 181.689 102.018 181.585 102.29C181.484 102.559 181.433 102.861 181.433 103.197C181.433 103.537 181.485 103.845 181.589 104.123C181.694 104.398 181.85 104.618 182.055 104.782C182.262 104.943 182.519 105.024 182.825 105.024ZM188.16 105.683C187.763 105.683 187.412 105.582 187.107 105.381C186.803 105.178 186.564 104.892 186.392 104.524C186.22 104.153 186.134 103.715 186.134 103.209C186.134 102.708 186.22 102.273 186.392 101.904C186.564 101.536 186.804 101.251 187.11 101.05C187.417 100.849 187.771 100.748 188.173 100.748C188.484 100.748 188.729 100.8 188.909 100.904C189.092 101.005 189.23 101.121 189.326 101.252C189.423 101.38 189.499 101.486 189.552 101.569H189.615V99.2197H190.348V105.583H189.639V104.85H189.552C189.499 104.937 189.422 105.047 189.322 105.179C189.223 105.31 189.081 105.427 188.897 105.53C188.712 105.632 188.467 105.683 188.16 105.683ZM188.26 105.024C188.554 105.024 188.803 104.947 189.006 104.794C189.209 104.639 189.363 104.424 189.469 104.151C189.574 103.875 189.627 103.557 189.627 103.197C189.627 102.841 189.575 102.529 189.472 102.262C189.368 101.992 189.215 101.783 189.012 101.634C188.809 101.483 188.558 101.407 188.26 101.407C187.949 101.407 187.69 101.487 187.483 101.646C187.278 101.804 187.124 102.018 187.02 102.29C186.919 102.559 186.868 102.861 186.868 103.197C186.868 103.537 186.92 103.845 187.023 104.123C187.129 104.398 187.284 104.618 187.489 104.782C187.696 104.943 187.953 105.024 188.26 105.024ZM193.595 105.683C193.197 105.683 192.846 105.582 192.542 105.381C192.237 105.178 191.999 104.892 191.827 104.524C191.655 104.153 191.569 103.715 191.569 103.209C191.569 102.708 191.655 102.273 191.827 101.904C191.999 101.536 192.238 101.251 192.545 101.05C192.851 100.849 193.206 100.748 193.607 100.748C193.918 100.748 194.164 100.8 194.344 100.904C194.526 101.005 194.665 101.121 194.76 101.252C194.858 101.38 194.933 101.486 194.987 101.569H195.049V100.811H195.782V105.583H195.074V104.85H194.987C194.933 104.937 194.856 105.047 194.757 105.179C194.658 105.31 194.516 105.427 194.331 105.53C194.147 105.632 193.902 105.683 193.595 105.683ZM193.694 105.024C193.989 105.024 194.237 104.947 194.44 104.794C194.643 104.639 194.797 104.424 194.903 104.151C195.009 103.875 195.062 103.557 195.062 103.197C195.062 102.841 195.01 102.529 194.906 102.262C194.803 101.992 194.649 101.783 194.446 101.634C194.243 101.483 193.993 101.407 193.694 101.407C193.384 101.407 193.125 101.487 192.918 101.646C192.712 101.804 192.558 102.018 192.455 102.29C192.353 102.559 192.302 102.861 192.302 103.197C192.302 103.537 192.354 103.845 192.458 104.123C192.563 104.398 192.719 104.618 192.924 104.782C193.131 104.943 193.388 105.024 193.694 105.024Z" fill="#1C1C1C"/>
<path d="M257.575 105.583V105.024L259.676 102.725C259.922 102.455 260.125 102.221 260.285 102.022C260.444 101.821 260.562 101.633 260.639 101.457C260.718 101.279 260.757 101.092 260.757 100.898C260.757 100.674 260.703 100.48 260.595 100.317C260.49 100.153 260.345 100.027 260.16 99.9375C259.976 99.8484 259.769 99.8039 259.539 99.8039C259.295 99.8039 259.081 99.8546 258.899 99.9561C258.719 100.056 258.579 100.195 258.479 100.376C258.382 100.556 258.333 100.767 258.333 101.009H257.6C257.6 100.637 257.686 100.309 257.858 100.028C258.03 99.7459 258.264 99.5263 258.56 99.3688C258.859 99.2114 259.193 99.1327 259.564 99.1327C259.937 99.1327 260.267 99.2114 260.555 99.3688C260.843 99.5263 261.069 99.7386 261.232 100.006C261.396 100.273 261.478 100.57 261.478 100.898C261.478 101.132 261.435 101.361 261.351 101.584C261.268 101.806 261.123 102.054 260.916 102.327C260.71 102.598 260.426 102.93 260.061 103.321L258.632 104.85V104.9H261.59V105.583H257.575ZM262.873 105.583V105.024L264.974 102.725C265.22 102.455 265.423 102.221 265.583 102.022C265.742 101.821 265.86 101.633 265.937 101.457C266.016 101.279 266.055 101.092 266.055 100.898C266.055 100.674 266.001 100.48 265.893 100.317C265.788 100.153 265.643 100.027 265.458 99.9375C265.274 99.8484 265.067 99.8039 264.837 99.8039C264.592 99.8039 264.379 99.8546 264.197 99.9561C264.017 100.056 263.877 100.195 263.777 100.376C263.68 100.556 263.631 100.767 263.631 101.009H262.898C262.898 100.637 262.984 100.309 263.156 100.028C263.328 99.7459 263.562 99.5263 263.858 99.3688C264.156 99.2114 264.491 99.1327 264.862 99.1327C265.235 99.1327 265.565 99.2114 265.853 99.3688C266.141 99.5263 266.367 99.7386 266.53 100.006C266.694 100.273 266.776 100.57 266.776 100.898C266.776 101.132 266.733 101.361 266.648 101.584C266.566 101.806 266.421 102.054 266.213 102.327C266.008 102.598 265.723 102.93 265.359 103.321L263.93 104.85V104.9H266.888V105.583H262.873ZM268.718 105.633C268.565 105.633 268.433 105.578 268.323 105.468C268.213 105.359 268.159 105.227 268.159 105.074C268.159 104.92 268.213 104.789 268.323 104.679C268.433 104.569 268.565 104.514 268.718 104.514C268.871 104.514 269.003 104.569 269.112 104.679C269.222 104.789 269.277 104.92 269.277 105.074C269.277 105.175 269.251 105.268 269.199 105.353C269.15 105.438 269.082 105.507 268.997 105.558C268.915 105.608 268.821 105.633 268.718 105.633ZM272.441 105.67C272.076 105.67 271.748 105.598 271.456 105.453C271.164 105.308 270.93 105.109 270.754 104.856C270.578 104.604 270.481 104.316 270.465 103.992H271.211C271.24 104.28 271.37 104.519 271.602 104.707C271.836 104.894 272.116 104.987 272.441 104.987C272.702 104.987 272.934 104.926 273.137 104.803C273.342 104.681 273.503 104.513 273.619 104.3C273.737 104.085 273.796 103.841 273.796 103.57C273.796 103.292 273.735 103.045 273.613 102.827C273.492 102.608 273.327 102.435 273.115 102.308C272.904 102.182 272.663 102.118 272.391 102.116C272.197 102.114 271.997 102.144 271.792 102.206C271.587 102.266 271.418 102.344 271.285 102.439L270.564 102.352L270.95 99.2197H274.256V99.9033H271.596L271.372 101.78H271.409C271.54 101.676 271.704 101.591 271.9 101.522C272.097 101.454 272.302 101.42 272.516 101.42C272.905 101.42 273.252 101.513 273.557 101.699C273.863 101.884 274.103 102.136 274.277 102.457C274.454 102.779 274.542 103.145 274.542 103.557C274.542 103.963 274.45 104.326 274.268 104.645C274.088 104.962 273.839 105.213 273.522 105.397C273.205 105.579 272.845 105.67 272.441 105.67ZM279.02 104.39V104.055C279.02 103.823 279.068 103.61 279.163 103.418C279.26 103.223 279.401 103.068 279.585 102.951C279.772 102.833 279.998 102.774 280.263 102.774C280.532 102.774 280.758 102.833 280.94 102.951C281.122 103.068 281.26 103.223 281.353 103.418C281.447 103.61 281.493 103.823 281.493 104.055V104.39C281.493 104.622 281.446 104.836 281.35 105.03C281.257 105.223 281.118 105.378 280.934 105.496C280.752 105.612 280.528 105.67 280.263 105.67C279.993 105.67 279.767 105.612 279.582 105.496C279.398 105.378 279.258 105.223 279.163 105.03C279.068 104.836 279.02 104.622 279.02 104.39ZM279.654 104.055V104.39C279.654 104.583 279.699 104.756 279.79 104.909C279.882 105.06 280.039 105.136 280.263 105.136C280.48 105.136 280.634 105.06 280.723 104.909C280.814 104.756 280.859 104.583 280.859 104.39V104.055C280.859 103.862 280.816 103.69 280.729 103.539C280.642 103.385 280.487 103.309 280.263 103.309C280.045 103.309 279.889 103.385 279.794 103.539C279.7 103.69 279.654 103.862 279.654 104.055ZM275.85 100.748V100.413C275.85 100.181 275.898 99.9685 275.993 99.7759C276.091 99.5812 276.232 99.4258 276.416 99.3098C276.602 99.1917 276.828 99.1327 277.093 99.1327C277.363 99.1327 277.588 99.1917 277.771 99.3098C277.953 99.4258 278.091 99.5812 278.184 99.7759C278.277 99.9685 278.324 100.181 278.324 100.413V100.748C278.324 100.98 278.276 101.194 278.181 101.389C278.088 101.581 277.949 101.737 277.765 101.855C277.582 101.971 277.359 102.029 277.093 102.029C276.824 102.029 276.597 101.971 276.413 101.855C276.229 101.737 276.089 101.581 275.993 101.389C275.898 101.194 275.85 100.98 275.85 100.748ZM276.484 100.413V100.748C276.484 100.941 276.53 101.114 276.621 101.267C276.712 101.419 276.87 101.494 277.093 101.494C277.311 101.494 277.464 101.419 277.553 101.267C277.644 101.114 277.69 100.941 277.69 100.748V100.413C277.69 100.22 277.646 100.048 277.559 99.8971C277.472 99.7438 277.317 99.6671 277.093 99.6671C276.876 99.6671 276.719 99.7438 276.624 99.8971C276.531 100.048 276.484 100.22 276.484 100.413ZM276.087 105.583L280.462 99.2197H281.17L276.795 105.583H276.087Z" fill="#1C1C1C"/>
<path d="M159.688 128.25C159.688 129.458 158.708 130.438 157.5 130.438C156.292 130.438 155.312 129.458 155.312 128.25C155.312 127.042 156.292 126.063 157.5 126.063C158.708 126.063 159.688 127.042 159.688 128.25Z" fill="#B1E3FF"/>
<path d="M164.104 124.886H165.024L167.186 130.169H167.261L169.424 124.886H170.343V131.25H169.623V126.415H169.56L167.572 131.25H166.876L164.887 126.415H164.825V131.25H164.104V124.886ZM173.79 131.349C173.33 131.349 172.934 131.248 172.6 131.045C172.269 130.84 172.013 130.554 171.833 130.187C171.654 129.819 171.565 129.39 171.565 128.901C171.565 128.412 171.654 127.981 171.833 127.608C172.013 127.233 172.263 126.941 172.585 126.732C172.908 126.521 173.285 126.415 173.716 126.415C173.964 126.415 174.21 126.457 174.452 126.539C174.694 126.622 174.915 126.757 175.114 126.943C175.313 127.128 175.471 127.372 175.589 127.677C175.707 127.981 175.766 128.356 175.766 128.802V129.112H172.087V128.478H175.021C175.021 128.209 174.967 127.969 174.859 127.757C174.753 127.546 174.602 127.379 174.405 127.257C174.211 127.135 173.981 127.074 173.716 127.074C173.423 127.074 173.171 127.146 172.957 127.291C172.746 127.434 172.584 127.621 172.47 127.851C172.356 128.081 172.299 128.327 172.299 128.59V129.013C172.299 129.373 172.361 129.679 172.485 129.929C172.611 130.178 172.787 130.368 173.01 130.498C173.234 130.627 173.494 130.691 173.79 130.691C173.983 130.691 174.157 130.664 174.312 130.61C174.47 130.554 174.605 130.471 174.719 130.361C174.833 130.249 174.921 130.111 174.983 129.945L175.692 130.144C175.617 130.384 175.492 130.595 175.316 130.778C175.14 130.958 174.922 131.099 174.663 131.2C174.404 131.3 174.113 131.349 173.79 131.349ZM177.301 126.477L178.444 128.429L179.587 126.477H180.433L178.891 128.864L180.433 131.25H179.587L178.444 129.398L177.301 131.25H176.455L177.972 128.864L176.455 126.477H177.301ZM181.479 131.25V126.477H182.212V131.25H181.479ZM181.852 125.682C181.709 125.682 181.586 125.633 181.482 125.536C181.381 125.438 181.33 125.321 181.33 125.185C181.33 125.048 181.381 124.931 181.482 124.834C181.586 124.736 181.709 124.688 181.852 124.688C181.995 124.688 182.117 124.736 182.219 124.834C182.322 124.931 182.374 125.048 182.374 125.185C182.374 125.321 182.322 125.438 182.219 125.536C182.117 125.633 181.995 125.682 181.852 125.682ZM185.494 131.349C185.047 131.349 184.662 131.244 184.338 131.033C184.015 130.821 183.767 130.53 183.593 130.159C183.419 129.789 183.332 129.365 183.332 128.889C183.332 128.404 183.421 127.976 183.599 127.605C183.779 127.232 184.03 126.941 184.351 126.732C184.674 126.521 185.051 126.415 185.482 126.415C185.818 126.415 186.12 126.477 186.389 126.602C186.659 126.726 186.879 126.9 187.051 127.124C187.223 127.347 187.33 127.608 187.371 127.907H186.638C186.582 127.689 186.458 127.496 186.265 127.329C186.074 127.159 185.818 127.074 185.494 127.074C185.208 127.074 184.958 127.148 184.742 127.298C184.529 127.445 184.362 127.653 184.242 127.922C184.124 128.189 184.065 128.503 184.065 128.864C184.065 129.232 184.123 129.553 184.239 129.827C184.357 130.1 184.523 130.313 184.736 130.464C184.952 130.615 185.204 130.691 185.494 130.691C185.685 130.691 185.858 130.658 186.013 130.591C186.169 130.525 186.3 130.43 186.408 130.305C186.516 130.181 186.592 130.032 186.638 129.858H187.371C187.33 130.14 187.227 130.393 187.064 130.619C186.902 130.843 186.688 131.021 186.42 131.154C186.155 131.284 185.847 131.349 185.494 131.349ZM190.382 131.349C189.951 131.349 189.573 131.247 189.248 131.042C188.925 130.837 188.672 130.55 188.49 130.181C188.31 129.812 188.219 129.382 188.219 128.889C188.219 128.391 188.31 127.957 188.49 127.587C188.672 127.216 188.925 126.928 189.248 126.723C189.573 126.518 189.951 126.415 190.382 126.415C190.813 126.415 191.19 126.518 191.513 126.723C191.838 126.928 192.091 127.216 192.271 127.587C192.454 127.957 192.545 128.391 192.545 128.889C192.545 129.382 192.454 129.812 192.271 130.181C192.091 130.55 191.838 130.837 191.513 131.042C191.19 131.247 190.813 131.349 190.382 131.349ZM190.382 130.691C190.709 130.691 190.979 130.607 191.19 130.439C191.401 130.271 191.558 130.051 191.659 129.777C191.761 129.504 191.811 129.208 191.811 128.889C191.811 128.57 191.761 128.272 191.659 127.997C191.558 127.721 191.401 127.499 191.19 127.329C190.979 127.159 190.709 127.074 190.382 127.074C190.055 127.074 189.785 127.159 189.574 127.329C189.363 127.499 189.206 127.721 189.105 127.997C189.003 128.272 188.953 128.57 188.953 128.889C188.953 129.208 189.003 129.504 189.105 129.777C189.206 130.051 189.363 130.271 189.574 130.439C189.785 130.607 190.055 130.691 190.382 130.691Z" fill="#1C1C1C"/>
<path d="M257.476 129.659H258.259C258.282 129.875 258.355 130.057 258.479 130.206C258.606 130.353 258.769 130.465 258.97 130.542C259.171 130.616 259.394 130.653 259.638 130.653C259.904 130.653 260.142 130.609 260.353 130.52C260.564 130.431 260.732 130.298 260.856 130.122C260.981 129.944 261.043 129.723 261.043 129.46C261.043 129.23 260.989 129.017 260.881 128.82C260.774 128.621 260.601 128.461 260.362 128.339C260.124 128.216 259.808 128.155 259.415 128.155H258.905V127.534L260.496 125.62V125.57H257.787V124.886H261.553V125.446L259.85 127.509V127.559C260.123 127.571 260.378 127.627 260.614 127.726C260.852 127.826 261.059 127.96 261.236 128.13C261.414 128.3 261.553 128.498 261.652 128.724C261.751 128.95 261.801 129.195 261.801 129.46C261.801 129.823 261.708 130.146 261.521 130.43C261.337 130.711 261.081 130.933 260.754 131.095C260.429 131.256 260.053 131.337 259.626 131.337C259.249 131.337 258.902 131.271 258.585 131.138C258.268 131.006 258.01 130.814 257.811 130.563C257.613 130.313 257.501 130.011 257.476 129.659ZM265.145 131.337C264.677 131.337 264.278 131.21 263.949 130.955C263.62 130.698 263.368 130.326 263.194 129.839C263.02 129.35 262.933 128.76 262.933 128.068C262.933 127.38 263.02 126.793 263.194 126.306C263.37 125.818 263.623 125.445 263.952 125.188C264.284 124.929 264.681 124.799 265.145 124.799C265.609 124.799 266.006 124.929 266.335 125.188C266.667 125.445 266.92 125.818 267.094 126.306C267.27 126.793 267.358 127.38 267.358 128.068C267.358 128.76 267.271 129.35 267.097 129.839C266.923 130.326 266.671 130.698 266.342 130.955C266.012 131.21 265.613 131.337 265.145 131.337ZM265.145 130.653C265.609 130.653 265.97 130.43 266.227 129.982C266.483 129.535 266.612 128.897 266.612 128.068C266.612 127.517 266.553 127.048 266.435 126.661C266.319 126.273 266.151 125.978 265.931 125.775C265.714 125.572 265.452 125.471 265.145 125.471C264.685 125.471 264.326 125.697 264.067 126.151C263.808 126.603 263.679 127.242 263.679 128.068C263.679 128.619 263.737 129.087 263.853 129.473C263.969 129.858 264.135 130.151 264.353 130.352C264.572 130.553 264.837 130.653 265.145 130.653ZM268.863 131.3C268.71 131.3 268.578 131.245 268.468 131.135C268.359 131.025 268.304 130.894 268.304 130.74C268.304 130.587 268.359 130.456 268.468 130.346C268.578 130.236 268.71 130.181 268.863 130.181C269.016 130.181 269.148 130.236 269.258 130.346C269.367 130.456 269.422 130.587 269.422 130.74C269.422 130.842 269.396 130.935 269.345 131.02C269.295 131.105 269.228 131.173 269.143 131.225C269.06 131.275 268.967 131.3 268.863 131.3ZM272.568 131.337C272.141 131.337 271.764 131.261 271.437 131.11C271.111 130.957 270.858 130.747 270.675 130.479C270.493 130.21 270.403 129.904 270.405 129.56C270.403 129.29 270.456 129.042 270.564 128.814C270.671 128.584 270.818 128.392 271.005 128.239C271.193 128.084 271.404 127.985 271.636 127.944V127.907C271.331 127.828 271.089 127.657 270.908 127.394C270.728 127.129 270.639 126.827 270.641 126.49C270.639 126.167 270.721 125.878 270.887 125.623C271.052 125.368 271.28 125.167 271.57 125.02C271.862 124.873 272.195 124.799 272.568 124.799C272.936 124.799 273.266 124.873 273.556 125.02C273.846 125.167 274.074 125.368 274.239 125.623C274.407 125.878 274.492 126.167 274.494 126.49C274.492 126.827 274.4 127.129 274.218 127.394C274.037 127.657 273.798 127.828 273.5 127.907V127.944C273.73 127.985 273.937 128.084 274.121 128.239C274.306 128.392 274.453 128.584 274.563 128.814C274.672 129.042 274.728 129.29 274.73 129.56C274.728 129.904 274.635 130.21 274.451 130.479C274.268 130.747 274.015 130.957 273.689 131.11C273.366 131.261 272.992 131.337 272.568 131.337ZM272.568 130.653C272.856 130.653 273.104 130.607 273.313 130.514C273.523 130.42 273.684 130.289 273.798 130.119C273.912 129.949 273.97 129.75 273.972 129.522C273.97 129.282 273.908 129.07 273.786 128.885C273.664 128.701 273.497 128.556 273.285 128.45C273.076 128.345 272.837 128.292 272.568 128.292C272.296 128.292 272.054 128.345 271.841 128.45C271.629 128.556 271.463 128.701 271.34 128.885C271.22 129.07 271.161 129.282 271.163 129.522C271.161 129.75 271.216 129.949 271.328 130.119C271.442 130.289 271.604 130.42 271.816 130.514C272.027 130.607 272.278 130.653 272.568 130.653ZM272.568 127.633C272.796 127.633 272.998 127.588 273.174 127.496C273.352 127.405 273.492 127.278 273.593 127.114C273.695 126.951 273.746 126.759 273.748 126.539C273.746 126.324 273.696 126.137 273.596 125.977C273.497 125.815 273.359 125.691 273.183 125.604C273.007 125.515 272.802 125.471 272.568 125.471C272.329 125.471 272.121 125.515 271.943 125.604C271.765 125.691 271.627 125.815 271.53 125.977C271.433 126.137 271.385 126.324 271.387 126.539C271.385 126.759 271.434 126.951 271.533 127.114C271.634 127.278 271.774 127.405 271.952 127.496C272.131 127.588 272.336 127.633 272.568 127.633ZM279.165 130.057V129.721C279.165 129.489 279.213 129.277 279.308 129.084C279.405 128.89 279.546 128.734 279.731 128.618C279.917 128.5 280.143 128.441 280.408 128.441C280.677 128.441 280.903 128.5 281.085 128.618C281.268 128.734 281.405 128.89 281.499 129.084C281.592 129.277 281.639 129.489 281.639 129.721V130.057C281.639 130.289 281.591 130.502 281.496 130.697C281.402 130.89 281.264 131.045 281.079 131.163C280.897 131.279 280.673 131.337 280.408 131.337C280.139 131.337 279.912 131.279 279.728 131.163C279.543 131.045 279.403 130.89 279.308 130.697C279.213 130.502 279.165 130.289 279.165 130.057ZM279.799 129.721V130.057C279.799 130.249 279.845 130.422 279.936 130.576C280.027 130.727 280.184 130.803 280.408 130.803C280.626 130.803 280.779 130.727 280.868 130.576C280.959 130.422 281.005 130.249 281.005 130.057V129.721C281.005 129.529 280.961 129.357 280.874 129.205C280.787 129.052 280.632 128.976 280.408 128.976C280.191 128.976 280.034 129.052 279.939 129.205C279.846 129.357 279.799 129.529 279.799 129.721ZM275.996 126.415V126.08C275.996 125.848 276.043 125.635 276.139 125.443C276.236 125.248 276.377 125.092 276.561 124.976C276.748 124.858 276.974 124.799 277.239 124.799C277.508 124.799 277.734 124.858 277.916 124.976C278.098 125.092 278.236 125.248 278.329 125.443C278.423 125.635 278.469 125.848 278.469 126.08V126.415C278.469 126.647 278.421 126.861 278.326 127.055C278.233 127.248 278.094 127.403 277.91 127.521C277.728 127.637 277.504 127.695 277.239 127.695C276.969 127.695 276.743 127.637 276.558 127.521C276.374 127.403 276.234 127.248 276.139 127.055C276.043 126.861 275.996 126.647 275.996 126.415ZM276.63 126.08V126.415C276.63 126.608 276.675 126.781 276.766 126.934C276.858 127.085 277.015 127.161 277.239 127.161C277.456 127.161 277.609 127.085 277.699 126.934C277.79 126.781 277.835 126.608 277.835 126.415V126.08C277.835 125.887 277.792 125.715 277.705 125.564C277.618 125.41 277.462 125.334 277.239 125.334C277.021 125.334 276.865 125.41 276.769 125.564C276.676 125.715 276.63 125.887 276.63 126.08ZM276.232 131.25L280.607 124.886H281.315L276.94 131.25H276.232Z" fill="#1C1C1C"/>
<path d="M159.688 153.917C159.688 155.125 158.708 156.104 157.5 156.104C156.292 156.104 155.312 155.125 155.312 153.917C155.312 152.709 156.292 151.729 157.5 151.729C158.708 151.729 159.688 152.709 159.688 153.917Z" fill="#A8C5DA"/>
<path d="M169.473 153.735C169.473 154.406 169.352 154.986 169.11 155.475C168.867 155.964 168.535 156.341 168.112 156.606C167.69 156.871 167.207 157.004 166.664 157.004C166.122 157.004 165.639 156.871 165.216 156.606C164.794 156.341 164.461 155.964 164.219 155.475C163.977 154.986 163.856 154.406 163.856 153.735C163.856 153.064 163.977 152.484 164.219 151.995C164.461 151.506 164.794 151.129 165.216 150.864C165.639 150.599 166.122 150.466 166.664 150.466C167.207 150.466 167.69 150.599 168.112 150.864C168.535 151.129 168.867 151.506 169.11 151.995C169.352 152.484 169.473 153.064 169.473 153.735ZM168.728 153.735C168.728 153.184 168.635 152.719 168.451 152.34C168.269 151.961 168.021 151.674 167.708 151.479C167.398 151.284 167.05 151.187 166.664 151.187C166.279 151.187 165.93 151.284 165.617 151.479C165.307 151.674 165.059 151.961 164.875 152.34C164.692 152.719 164.601 153.184 164.601 153.735C164.601 154.286 164.692 154.751 164.875 155.13C165.059 155.509 165.307 155.796 165.617 155.991C165.93 156.185 166.279 156.283 166.664 156.283C167.05 156.283 167.398 156.185 167.708 155.991C168.021 155.796 168.269 155.509 168.451 155.13C168.635 154.751 168.728 154.286 168.728 153.735ZM172.745 152.144V152.765H170.272V152.144H172.745ZM170.993 151H171.726V155.549C171.726 155.757 171.756 155.912 171.816 156.016C171.878 156.117 171.957 156.185 172.052 156.221C172.15 156.254 172.252 156.27 172.36 156.27C172.441 156.27 172.507 156.266 172.559 156.258C172.611 156.248 172.652 156.239 172.683 156.233L172.832 156.892C172.783 156.91 172.713 156.929 172.624 156.948C172.535 156.968 172.422 156.979 172.285 156.979C172.078 156.979 171.875 156.934 171.676 156.845C171.48 156.756 171.316 156.62 171.186 156.438C171.057 156.256 170.993 156.026 170.993 155.748V151ZM174.684 154.046V156.917H173.951V150.553H174.684V152.89H174.746C174.858 152.643 175.026 152.447 175.25 152.302C175.476 152.155 175.776 152.082 176.151 152.082C176.476 152.082 176.761 152.147 177.005 152.278C177.25 152.406 177.439 152.604 177.574 152.871C177.711 153.136 177.779 153.474 177.779 153.884V156.917H177.046V153.934C177.046 153.555 176.947 153.262 176.751 153.054C176.556 152.845 176.286 152.741 175.94 152.741C175.699 152.741 175.484 152.791 175.293 152.893C175.105 152.994 174.956 153.142 174.846 153.337C174.738 153.532 174.684 153.768 174.684 154.046ZM181.122 157.016C180.662 157.016 180.265 156.915 179.932 156.712C179.6 156.507 179.344 156.221 179.164 155.854C178.986 155.485 178.897 155.056 178.897 154.568C178.897 154.079 178.986 153.648 179.164 153.275C179.344 152.9 179.595 152.608 179.916 152.399C180.239 152.187 180.616 152.082 181.047 152.082C181.296 152.082 181.541 152.123 181.784 152.206C182.026 152.289 182.247 152.424 182.445 152.61C182.644 152.794 182.803 153.039 182.921 153.343C183.039 153.648 183.098 154.023 183.098 154.468V154.779H179.419V154.145H182.352C182.352 153.876 182.298 153.635 182.191 153.424C182.085 153.213 181.934 153.046 181.737 152.924C181.542 152.802 181.312 152.741 181.047 152.741C180.755 152.741 180.502 152.813 180.289 152.958C180.078 153.101 179.915 153.287 179.801 153.517C179.687 153.747 179.63 153.994 179.63 154.257V154.679C179.63 155.04 179.692 155.345 179.817 155.596C179.943 155.845 180.118 156.034 180.342 156.165C180.565 156.293 180.825 156.357 181.122 156.357C181.314 156.357 181.488 156.33 181.644 156.277C181.801 156.221 181.937 156.138 182.051 156.028C182.165 155.916 182.253 155.777 182.315 155.612L183.023 155.81C182.949 156.051 182.823 156.262 182.647 156.444C182.471 156.625 182.254 156.765 181.995 156.867C181.736 156.966 181.445 157.016 181.122 157.016ZM184.213 156.917V152.144H184.922V152.865H184.972C185.059 152.629 185.216 152.437 185.444 152.29C185.672 152.143 185.929 152.069 186.214 152.069C186.268 152.069 186.336 152.07 186.416 152.072C186.497 152.075 186.558 152.078 186.6 152.082V152.828C186.575 152.821 186.518 152.812 186.429 152.8C186.342 152.785 186.25 152.778 186.152 152.778C185.92 152.778 185.713 152.827 185.531 152.924C185.351 153.019 185.208 153.152 185.102 153.322C184.998 153.489 184.947 153.681 184.947 153.896V156.917H184.213Z" fill="#1C1C1C"/>
<path d="M267.614 157.004C267.187 157.004 266.81 156.928 266.483 156.777C266.157 156.624 265.904 156.413 265.721 156.146C265.539 155.877 265.449 155.57 265.451 155.226C265.449 154.957 265.502 154.708 265.609 154.481C265.717 154.251 265.864 154.059 266.051 153.906C266.239 153.75 266.449 153.652 266.681 153.611V153.573C266.377 153.495 266.135 153.324 265.954 153.061C265.774 152.795 265.685 152.494 265.687 152.156C265.685 151.833 265.767 151.544 265.933 151.289C266.098 151.035 266.326 150.834 266.616 150.687C266.908 150.54 267.241 150.466 267.614 150.466C267.982 150.466 268.312 150.54 268.602 150.687C268.892 150.834 269.12 151.035 269.285 151.289C269.453 151.544 269.538 151.833 269.54 152.156C269.538 152.494 269.446 152.795 269.264 153.061C269.083 153.324 268.844 153.495 268.546 153.573V153.611C268.776 153.652 268.983 153.75 269.167 153.906C269.352 154.059 269.499 154.251 269.608 154.481C269.718 154.708 269.774 154.957 269.776 155.226C269.774 155.57 269.681 155.877 269.497 156.146C269.314 156.413 269.061 156.624 268.735 156.777C268.412 156.928 268.038 157.004 267.614 157.004ZM267.614 156.32C267.902 156.32 268.15 156.273 268.359 156.18C268.569 156.087 268.73 155.955 268.844 155.786C268.958 155.616 269.016 155.417 269.018 155.189C269.016 154.949 268.954 154.736 268.832 154.552C268.709 154.368 268.543 154.223 268.331 154.117C268.122 154.011 267.883 153.959 267.614 153.959C267.342 153.959 267.1 154.011 266.886 154.117C266.675 154.223 266.508 154.368 266.386 154.552C266.266 154.736 266.207 154.949 266.209 155.189C266.207 155.417 266.262 155.616 266.374 155.786C266.488 155.955 266.65 156.087 266.862 156.18C267.073 156.273 267.324 156.32 267.614 156.32ZM267.614 153.3C267.841 153.3 268.043 153.254 268.22 153.163C268.398 153.072 268.537 152.945 268.639 152.781C268.74 152.617 268.792 152.426 268.794 152.206C268.792 151.991 268.742 151.803 268.642 151.644C268.543 151.482 268.405 151.358 268.229 151.271C268.053 151.182 267.848 151.137 267.614 151.137C267.375 151.137 267.167 151.182 266.989 151.271C266.811 151.358 266.673 151.482 266.576 151.644C266.478 151.803 266.431 151.991 266.433 152.206C266.431 152.426 266.479 152.617 266.579 152.781C266.68 152.945 266.82 153.072 266.998 153.163C267.177 153.254 267.382 153.3 267.614 153.3ZM271.317 156.966C271.164 156.966 271.033 156.911 270.923 156.802C270.813 156.692 270.758 156.56 270.758 156.407C270.758 156.254 270.813 156.122 270.923 156.012C271.033 155.903 271.164 155.848 271.317 155.848C271.471 155.848 271.602 155.903 271.712 156.012C271.822 156.122 271.877 156.254 271.877 156.407C271.877 156.509 271.851 156.602 271.799 156.687C271.749 156.772 271.682 156.84 271.597 156.892C271.514 156.942 271.421 156.966 271.317 156.966ZM274.458 150.553V156.917H273.687V151.672H273.638C273.609 151.73 273.534 151.796 273.414 151.871C273.294 151.943 273.139 152.007 272.948 152.063C272.757 152.117 272.54 152.144 272.295 152.144V151.498C272.542 151.498 272.755 151.453 272.936 151.364C273.116 151.275 273.266 151.17 273.386 151.05C273.508 150.93 273.6 150.821 273.663 150.724C273.727 150.627 273.764 150.57 273.774 150.553H274.458ZM279.526 155.723V155.388C279.526 155.156 279.574 154.944 279.669 154.751C279.766 154.556 279.907 154.401 280.092 154.285C280.278 154.167 280.504 154.108 280.769 154.108C281.038 154.108 281.264 154.167 281.446 154.285C281.629 154.401 281.766 154.556 281.86 154.751C281.953 154.944 281.999 155.156 281.999 155.388V155.723C281.999 155.955 281.952 156.169 281.856 156.364C281.763 156.556 281.624 156.712 281.44 156.83C281.258 156.946 281.034 157.004 280.769 157.004C280.5 157.004 280.273 156.946 280.088 156.83C279.904 156.712 279.764 156.556 279.669 156.364C279.574 156.169 279.526 155.955 279.526 155.723ZM280.16 155.388V155.723C280.16 155.916 280.205 156.089 280.297 156.242C280.388 156.394 280.545 156.469 280.769 156.469C280.986 156.469 281.14 156.394 281.229 156.242C281.32 156.089 281.365 155.916 281.365 155.723V155.388C281.365 155.195 281.322 155.023 281.235 154.872C281.148 154.719 280.993 154.642 280.769 154.642C280.551 154.642 280.395 154.719 280.3 154.872C280.206 155.023 280.16 155.195 280.16 155.388ZM276.357 152.082V151.746C276.357 151.514 276.404 151.302 276.5 151.109C276.597 150.915 276.738 150.759 276.922 150.643C277.109 150.525 277.334 150.466 277.599 150.466C277.869 150.466 278.095 150.525 278.277 150.643C278.459 150.759 278.597 150.915 278.69 151.109C278.783 151.302 278.83 151.514 278.83 151.746V152.082C278.83 152.314 278.782 152.527 278.687 152.722C278.594 152.915 278.455 153.07 278.271 153.188C278.088 153.304 277.865 153.362 277.599 153.362C277.33 153.362 277.103 153.304 276.919 153.188C276.735 153.07 276.595 152.915 276.5 152.722C276.404 152.527 276.357 152.314 276.357 152.082ZM276.99 151.746V152.082C276.99 152.274 277.036 152.447 277.127 152.601C277.218 152.752 277.376 152.828 277.599 152.828C277.817 152.828 277.97 152.752 278.059 152.601C278.151 152.447 278.196 152.274 278.196 152.082V151.746C278.196 151.554 278.153 151.382 278.066 151.23C277.979 151.077 277.823 151 277.599 151C277.382 151 277.226 151.077 277.13 151.23C277.037 151.382 276.99 151.554 276.99 151.746ZM276.593 156.917L280.968 150.553H281.676L277.301 156.917H276.593Z" fill="#1C1C1C"/>
<defs>
<linearGradient id="paint0_linear_153_10661" x1="119.576" y1="71.6667" x2="89.9518" y2="103.07" gradientUnits="userSpaceOnUse">
<stop/>
<stop offset="1"/>
</linearGradient>
<linearGradient id="paint1_linear_153_10661" x1="92.4876" y1="71.6667" x2="92.4876" y2="159.143" gradientUnits="userSpaceOnUse">
<stop/>
<stop offset="1" stop-color="#1C1C1C" stop-opacity="0.6"/>
<stop offset="1" stop-opacity="0.6"/>
</linearGradient>
<linearGradient id="paint2_linear_153_10661" x1="69.7737" y1="104.479" x2="51.9813" y2="125.922" gradientUnits="userSpaceOnUse">
<stop/>
<stop offset="1"/>
</linearGradient>
<linearGradient id="paint3_linear_153_10661" x1="65.0104" y1="77.5" x2="55.8914" y2="93.0954" gradientUnits="userSpaceOnUse">
<stop/>
<stop offset="1"/>
</linearGradient>
<linearGradient id="paint4_linear_153_10661" x1="75.7523" y1="71.6667" x2="68.1175" y2="82.8749" gradientUnits="userSpaceOnUse">
<stop/>
<stop offset="1"/>
</linearGradient>
</defs>
</svg>
