<svg width="778" height="399" viewBox="0 0 778 399" fill="none" xmlns="http://www.w3.org/2000/svg">
<path d="M0 11.6666C0 5.22332 5.22334 0 11.6667 0H766.333C772.777 0 778 5.22334 778 11.6667V387.333C778 393.777 772.777 399 766.333 399H11.6667C5.22337 399 0 393.777 0 387.333V11.6666Z" fill="#F7F9FB"/>
<path d="M17.906 23.1615V22.0341H23.8295V23.1615H21.5348V29.4583H20.2007V23.1615H17.906ZM26.5347 29.5671C25.9909 29.5671 25.5197 29.4474 25.1209 29.2082C24.7221 28.9689 24.4128 28.6342 24.1929 28.204C23.9754 27.7739 23.8666 27.2712 23.8666 26.696C23.8666 26.1208 23.9754 25.6169 24.1929 25.1843C24.4128 24.7517 24.7221 24.4158 25.1209 24.1765C25.5197 23.9373 25.9909 23.8176 26.5347 23.8176C27.0785 23.8176 27.5497 23.9373 27.9485 24.1765C28.3473 24.4158 28.6554 24.7517 28.8729 25.1843C29.0928 25.6169 29.2028 26.1208 29.2028 26.696C29.2028 27.2712 29.0928 27.7739 28.8729 28.204C28.6554 28.6342 28.3473 28.9689 27.9485 29.2082C27.5497 29.4474 27.0785 29.5671 26.5347 29.5671ZM26.542 28.5158C26.8368 28.5158 27.0833 28.4348 27.2815 28.2729C27.4796 28.1086 27.6271 27.8886 27.7237 27.6131C27.8228 27.3376 27.8724 27.0307 27.8724 26.6924C27.8724 26.3516 27.8228 26.0435 27.7237 25.768C27.6271 25.49 27.4796 25.2689 27.2815 25.1046C27.0833 24.9402 26.8368 24.858 26.542 24.858C26.2399 24.858 25.9885 24.9402 25.7879 25.1046C25.5898 25.2689 25.4411 25.49 25.342 25.768C25.2454 26.0435 25.197 26.3516 25.197 26.6924C25.197 27.0307 25.2454 27.3376 25.342 27.6131C25.4411 27.8886 25.5898 28.1086 25.7879 28.2729C25.9885 28.4348 26.2399 28.5158 26.542 28.5158ZM33.0971 23.8901V24.9052H29.8961V23.8901H33.0971ZM30.6864 22.5561H31.9987V27.7835C31.9987 27.9599 32.0252 28.0953 32.0784 28.1895C32.134 28.2814 32.2065 28.3442 32.2959 28.378C32.3853 28.4119 32.4844 28.4288 32.5932 28.4288C32.6753 28.4288 32.7503 28.4227 32.8179 28.4107C32.888 28.3986 32.9412 28.3877 32.9774 28.378L33.1986 29.4039C33.1285 29.4281 33.0282 29.4547 32.8977 29.4837C32.7696 29.5127 32.6125 29.5296 32.4264 29.5345C32.0977 29.5441 31.8017 29.4946 31.5383 29.3858C31.2748 29.2747 31.0658 29.1031 30.9111 28.8711C30.7589 28.639 30.684 28.349 30.6864 28.001V22.5561ZM36.2011 29.5562C35.7636 29.5562 35.3721 29.4438 35.0265 29.2191C34.6809 28.9943 34.4079 28.668 34.2073 28.2403C34.0067 27.8125 33.9064 27.2929 33.9064 26.6815C33.9064 26.0628 34.0079 25.5408 34.2109 25.1154C34.4163 24.6877 34.693 24.365 35.041 24.1475C35.3891 23.9276 35.7769 23.8176 36.2047 23.8176C36.531 23.8176 36.7992 23.8732 37.0095 23.9844C37.2197 24.0931 37.3865 24.2249 37.5097 24.3795C37.633 24.5318 37.7285 24.6756 37.7961 24.8109H37.8505V23.8901H39.1664V29.4583H37.8759V28.581H37.7961C37.7285 28.7164 37.6306 28.8602 37.5025 29.0124C37.3744 29.1623 37.2052 29.2904 36.995 29.3967C36.7847 29.503 36.5201 29.5562 36.2011 29.5562ZM36.5672 28.4795C36.8451 28.4795 37.082 28.4046 37.2777 28.2548C37.4735 28.1025 37.6221 27.8911 37.7236 27.6204C37.8251 27.3497 37.8759 27.0343 37.8759 26.6742C37.8759 26.3141 37.8251 26.0012 37.7236 25.7353C37.6245 25.4695 37.4771 25.2629 37.2814 25.1154C37.088 24.968 36.85 24.8943 36.5672 24.8943C36.2748 24.8943 36.0307 24.9704 35.8349 25.1227C35.6392 25.2749 35.4918 25.4852 35.3927 25.7535C35.2936 26.0217 35.244 26.3286 35.244 26.6742C35.244 27.0222 35.2936 27.3328 35.3927 27.6059C35.4942 27.8766 35.6428 28.0904 35.8386 28.2475C36.0367 28.4022 36.2796 28.4795 36.5672 28.4795ZM41.8771 22.0341V29.4583H40.5648V22.0341H41.8771ZM50.4967 22.0341H51.8417V26.8845C51.8417 27.4162 51.716 27.8838 51.4646 28.2874C51.2157 28.691 50.8653 29.0064 50.4134 29.2336C49.9614 29.4583 49.4334 29.5707 48.8292 29.5707C48.2226 29.5707 47.6933 29.4583 47.2414 29.2336C46.7894 29.0064 46.439 28.691 46.1901 28.2874C45.9412 27.8838 45.8167 27.4162 45.8167 26.8845V22.0341H47.1616V26.7721C47.1616 27.0815 47.2293 27.357 47.3646 27.5986C47.5024 27.8403 47.6957 28.03 47.9447 28.1678C48.1936 28.3031 48.4884 28.3708 48.8292 28.3708C49.1699 28.3708 49.4648 28.3031 49.7137 28.1678C49.9651 28.03 50.1584 27.8403 50.2937 27.5986C50.4291 27.357 50.4967 27.0815 50.4967 26.7721V22.0341ZM57.6464 25.3619L56.4501 25.4924C56.4163 25.3716 56.357 25.258 56.2725 25.1517C56.1903 25.0453 56.0791 24.9596 55.9389 24.8943C55.7988 24.829 55.6272 24.7964 55.4242 24.7964C55.1511 24.7964 54.9215 24.8556 54.7354 24.9741C54.5517 25.0925 54.4611 25.2459 54.4635 25.4344C54.4611 25.5964 54.5203 25.7281 54.6412 25.8296C54.7644 25.9311 54.9674 26.0145 55.2502 26.0797L56.2 26.2827C56.7268 26.3963 57.1183 26.5764 57.3745 26.8229C57.6331 27.0694 57.7636 27.392 57.766 27.7908C57.7636 28.1412 57.6609 28.4505 57.4579 28.7188C57.2573 28.9846 56.9781 29.1925 56.6205 29.3423C56.2628 29.4922 55.8519 29.5671 55.3879 29.5671C54.7064 29.5671 54.1578 29.4245 53.7421 29.1393C53.3264 28.8517 53.0787 28.4517 52.999 27.9394L54.2786 27.8161C54.3366 28.0675 54.4599 28.2572 54.6484 28.3853C54.8369 28.5134 55.0822 28.5774 55.3843 28.5774C55.6961 28.5774 55.9462 28.5134 56.1347 28.3853C56.3256 28.2572 56.4211 28.0989 56.4211 27.9104C56.4211 27.7509 56.3595 27.6192 56.2362 27.5153C56.1154 27.4113 55.9269 27.3316 55.6707 27.276L54.7209 27.0766C54.1868 26.9655 53.7917 26.7782 53.5355 26.5147C53.2793 26.2489 53.1524 25.913 53.1549 25.5069C53.1524 25.1638 53.2455 24.8665 53.434 24.6152C53.6249 24.3614 53.8895 24.1657 54.2279 24.0279C54.5686 23.8877 54.9614 23.8176 55.4061 23.8176C56.0586 23.8176 56.5721 23.9566 56.9467 24.2345C57.3237 24.5125 57.557 24.8883 57.6464 25.3619ZM61.3132 29.5671C60.7549 29.5671 60.2728 29.4511 59.8668 29.2191C59.4632 28.9846 59.1526 28.6535 58.9351 28.2258C58.7176 27.7956 58.6088 27.2893 58.6088 26.7069C58.6088 26.1341 58.7176 25.6314 58.9351 25.1988C59.155 24.7638 59.462 24.4255 59.8559 24.1838C60.2498 23.9397 60.7126 23.8176 61.2443 23.8176C61.5875 23.8176 61.9113 23.8732 62.2158 23.9844C62.5228 24.0931 62.7934 24.2623 63.0279 24.4919C63.2647 24.7215 63.4508 25.0139 63.5861 25.3692C63.7215 25.722 63.7891 26.1425 63.7891 26.6307V27.0331H59.2251V26.1486H62.5312C62.5288 25.8972 62.4744 25.6737 62.3681 25.4779C62.2618 25.2798 62.1131 25.1239 61.9222 25.0103C61.7337 24.8967 61.5138 24.8399 61.2624 24.8399C60.9942 24.8399 60.7585 24.9052 60.5555 25.0357C60.3525 25.1638 60.1942 25.3329 60.0806 25.5432C59.9695 25.751 59.9127 25.9794 59.9103 26.2283V27.0005C59.9103 27.3243 59.9695 27.6023 60.0879 27.8343C60.2063 28.0639 60.3719 28.2403 60.5845 28.3635C60.7972 28.4844 61.0461 28.5448 61.3313 28.5448C61.5222 28.5448 61.695 28.5182 61.8497 28.465C62.0044 28.4095 62.1385 28.3285 62.2521 28.2222C62.3657 28.1158 62.4515 27.9841 62.5095 27.827L63.7348 27.9648C63.6574 28.2886 63.51 28.5714 63.2925 28.8131C63.0774 29.0523 62.8019 29.2384 62.466 29.3713C62.13 29.5018 61.7458 29.5671 61.3132 29.5671ZM64.8993 29.4583V23.8901H66.1717V24.8182H66.2298C66.3313 24.4967 66.5053 24.249 66.7518 24.075C67.0007 23.8986 67.2847 23.8104 67.6037 23.8104C67.6762 23.8104 67.7571 23.814 67.8466 23.8213C67.9384 23.8261 68.0145 23.8346 68.0749 23.8466V25.0538C68.0194 25.0345 67.9311 25.0176 67.8103 25.0031C67.6919 24.9861 67.5771 24.9777 67.4659 24.9777C67.2267 24.9777 67.0116 25.0296 66.8206 25.1336C66.6321 25.2351 66.4835 25.3764 66.3748 25.5577C66.266 25.739 66.2116 25.948 66.2116 26.1848V29.4583H64.8993ZM73.3477 25.3619L72.1514 25.4924C72.1175 25.3716 72.0583 25.258 71.9737 25.1517C71.8916 25.0453 71.7804 24.9596 71.6402 24.8943C71.5001 24.829 71.3285 24.7964 71.1255 24.7964C70.8524 24.7964 70.6228 24.8556 70.4367 24.9741C70.253 25.0925 70.1624 25.2459 70.1648 25.4344C70.1624 25.5964 70.2216 25.7281 70.3424 25.8296C70.4657 25.9311 70.6687 26.0145 70.9515 26.0797L71.9012 26.2827C72.4281 26.3963 72.8196 26.5764 73.0758 26.8229C73.3344 27.0694 73.4649 27.392 73.4673 27.7908C73.4649 28.1412 73.3622 28.4505 73.1592 28.7188C72.9586 28.9846 72.6794 29.1925 72.3218 29.3423C71.9641 29.4922 71.5532 29.5671 71.0892 29.5671C70.4077 29.5671 69.8591 29.4245 69.4434 29.1393C69.0277 28.8517 68.78 28.4517 68.7003 27.9394L69.9799 27.8161C70.0379 28.0675 70.1612 28.2572 70.3497 28.3853C70.5382 28.5134 70.7835 28.5774 71.0856 28.5774C71.3974 28.5774 71.6475 28.5134 71.836 28.3853C72.0269 28.2572 72.1224 28.0989 72.1224 27.9104C72.1224 27.7509 72.0608 27.6192 71.9375 27.5153C71.8167 27.4113 71.6282 27.3316 71.372 27.276L70.4222 27.0766C69.8881 26.9655 69.493 26.7782 69.2368 26.5147C68.9806 26.2489 68.8537 25.913 68.8561 25.5069C68.8537 25.1638 68.9468 24.8665 69.1353 24.6152C69.3262 24.3614 69.5908 24.1657 69.9292 24.0279C70.2699 23.8877 70.6627 23.8176 71.1073 23.8176C71.7599 23.8176 72.2734 23.9566 72.648 24.2345C73.025 24.5125 73.2582 24.8883 73.3477 25.3619Z" fill="#1C1C1C"/>
<path d="M86.6595 22.8316V22.0341H92.2277V22.8316H89.8931V29.4583H88.9941V22.8316H86.6595ZM94.9538 29.5743C94.4511 29.5743 94.0101 29.4547 93.6306 29.2154C93.2536 28.9762 92.9588 28.6415 92.7461 28.2113C92.5358 27.7811 92.4307 27.2784 92.4307 26.7032C92.4307 26.1232 92.5358 25.6169 92.7461 25.1843C92.9588 24.7517 93.2536 24.4158 93.6306 24.1765C94.0101 23.9373 94.4511 23.8176 94.9538 23.8176C95.4565 23.8176 95.8963 23.9373 96.2733 24.1765C96.6528 24.4158 96.9476 24.7517 97.1579 25.1843C97.3705 25.6169 97.4769 26.1232 97.4769 26.7032C97.4769 27.2784 97.3705 27.7811 97.1579 28.2113C96.9476 28.6415 96.6528 28.9762 96.2733 29.2154C95.8963 29.4547 95.4565 29.5743 94.9538 29.5743ZM94.9538 28.8058C95.3356 28.8058 95.6498 28.7079 95.8963 28.5122C96.1428 28.3164 96.3253 28.059 96.4437 27.74C96.5621 27.421 96.6213 27.0754 96.6213 26.7032C96.6213 26.3311 96.5621 25.9843 96.4437 25.6628C96.3253 25.3414 96.1428 25.0816 95.8963 24.8834C95.6498 24.6853 95.3356 24.5862 94.9538 24.5862C94.5719 24.5862 94.2578 24.6853 94.0113 24.8834C93.7648 25.0816 93.5823 25.3414 93.4639 25.6628C93.3454 25.9843 93.2862 26.3311 93.2862 26.7032C93.2862 27.0754 93.3454 27.421 93.4639 27.74C93.5823 28.059 93.7648 28.3164 94.0113 28.5122C94.2578 28.7079 94.5719 28.8058 94.9538 28.8058ZM101.204 23.8901V24.6152H98.3188V23.8901H101.204ZM99.1598 22.5561H100.015V27.8633C100.015 28.1049 100.05 28.2862 100.12 28.407C100.193 28.5255 100.285 28.6052 100.396 28.6463C100.51 28.685 100.629 28.7043 100.755 28.7043C100.849 28.7043 100.926 28.6995 100.987 28.6898C101.047 28.6777 101.096 28.668 101.132 28.6608L101.306 29.4293C101.248 29.4511 101.167 29.4728 101.063 29.4946C100.959 29.5187 100.827 29.5308 100.668 29.5308C100.426 29.5308 100.189 29.4789 99.9574 29.3749C99.7278 29.271 99.5368 29.1127 99.3846 28.9001C99.2348 28.6874 99.1598 28.4191 99.1598 28.0953V22.5561ZM104.534 29.5743C104.07 29.5743 103.66 29.4571 103.305 29.2227C102.95 28.9858 102.672 28.6523 102.471 28.2222C102.271 27.7896 102.17 27.2784 102.17 26.6887C102.17 26.1039 102.271 25.5964 102.471 25.1662C102.672 24.736 102.951 24.4037 103.309 24.1693C103.666 23.9349 104.08 23.8176 104.549 23.8176C104.911 23.8176 105.197 23.8781 105.408 23.9989C105.62 24.1173 105.782 24.2527 105.893 24.4049C106.007 24.5547 106.095 24.678 106.158 24.7747H106.231V23.8901H107.086V29.4583H106.26V28.6028H106.158C106.095 28.7043 106.006 28.8324 105.89 28.9871C105.774 29.1393 105.608 29.2759 105.393 29.3967C105.178 29.5151 104.892 29.5743 104.534 29.5743ZM104.65 28.8058C104.993 28.8058 105.283 28.7164 105.52 28.5375C105.757 28.3563 105.937 28.1062 106.06 27.7871C106.184 27.4657 106.245 27.0947 106.245 26.6742C106.245 26.2586 106.185 25.8948 106.064 25.5831C105.943 25.2689 105.764 25.0248 105.527 24.8508C105.291 24.6744 104.998 24.5862 104.65 24.5862C104.288 24.5862 103.985 24.6792 103.744 24.8653C103.505 25.049 103.324 25.2991 103.204 25.6157C103.085 25.9299 103.026 26.2827 103.026 26.6742C103.026 27.0706 103.086 27.4307 103.207 27.7545C103.331 28.0759 103.512 28.3321 103.751 28.523C103.993 28.7115 104.292 28.8058 104.65 28.8058ZM109.627 22.0341V29.4583H108.772V22.0341H109.627ZM114.181 29.4583V22.0341H116.69C117.272 22.0341 117.749 22.1392 118.118 22.3495C118.49 22.5573 118.766 22.8389 118.945 23.1941C119.124 23.5494 119.213 23.9457 119.213 24.3832C119.213 24.8206 119.124 25.2181 118.945 25.5758C118.768 25.9335 118.495 26.2187 118.126 26.4313C117.756 26.6416 117.282 26.7467 116.705 26.7467H114.906V25.9492H116.676C117.074 25.9492 117.394 25.8803 117.636 25.7426C117.878 25.6048 118.053 25.4187 118.162 25.1843C118.273 24.9475 118.329 24.6804 118.329 24.3832C118.329 24.0859 118.273 23.8201 118.162 23.5856C118.053 23.3512 117.877 23.1675 117.633 23.0346C117.388 22.8993 117.065 22.8316 116.661 22.8316H115.08V29.4583H114.181ZM120.545 29.4583V23.8901H121.372V24.7312H121.43C121.531 24.4557 121.715 24.2321 121.981 24.0605C122.247 23.8889 122.546 23.8031 122.88 23.8031C122.943 23.8031 123.021 23.8043 123.116 23.8068C123.21 23.8092 123.281 23.8128 123.329 23.8176V24.6877C123.3 24.6804 123.234 24.6695 123.13 24.655C123.029 24.6381 122.921 24.6297 122.807 24.6297C122.537 24.6297 122.295 24.6865 122.082 24.8C121.872 24.9112 121.705 25.0659 121.582 25.2641C121.461 25.4598 121.401 25.6834 121.401 25.9347V29.4583H120.545ZM126.436 29.5743C125.933 29.5743 125.492 29.4547 125.113 29.2154C124.736 28.9762 124.441 28.6415 124.228 28.2113C124.018 27.7811 123.913 27.2784 123.913 26.7032C123.913 26.1232 124.018 25.6169 124.228 25.1843C124.441 24.7517 124.736 24.4158 125.113 24.1765C125.492 23.9373 125.933 23.8176 126.436 23.8176C126.939 23.8176 127.379 23.9373 127.756 24.1765C128.135 24.4158 128.43 24.7517 128.64 25.1843C128.853 25.6169 128.959 26.1232 128.959 26.7032C128.959 27.2784 128.853 27.7811 128.64 28.2113C128.43 28.6415 128.135 28.9762 127.756 29.2154C127.379 29.4547 126.939 29.5743 126.436 29.5743ZM126.436 28.8058C126.818 28.8058 127.132 28.7079 127.379 28.5122C127.625 28.3164 127.808 28.059 127.926 27.74C128.044 27.421 128.104 27.0754 128.104 26.7032C128.104 26.3311 128.044 25.9843 127.926 25.6628C127.808 25.3414 127.625 25.0816 127.379 24.8834C127.132 24.6853 126.818 24.5862 126.436 24.5862C126.054 24.5862 125.74 24.6853 125.494 24.8834C125.247 25.0816 125.065 25.3414 124.946 25.6628C124.828 25.9843 124.769 26.3311 124.769 26.7032C124.769 27.0754 124.828 27.421 124.946 27.74C125.065 28.059 125.247 28.3164 125.494 28.5122C125.74 28.7079 126.054 28.8058 126.436 28.8058ZM130.265 23.8901H131.121V29.8643C131.121 30.2075 131.061 30.5048 130.943 30.7561C130.827 31.0075 130.651 31.202 130.414 31.3398C130.179 31.4775 129.883 31.5464 129.526 31.5464C129.497 31.5464 129.468 31.5464 129.439 31.5464C129.41 31.5464 129.381 31.5464 129.352 31.5464V30.7489C129.381 30.7489 129.407 30.7489 129.431 30.7489C129.456 30.7489 129.482 30.7489 129.511 30.7489C129.772 30.7489 129.963 30.6715 130.084 30.5169C130.205 30.3646 130.265 30.1471 130.265 29.8643V23.8901ZM130.686 22.9621C130.519 22.9621 130.375 22.9053 130.254 22.7917C130.136 22.6781 130.077 22.5416 130.077 22.3821C130.077 22.2226 130.136 22.086 130.254 21.9725C130.375 21.8589 130.519 21.8021 130.686 21.8021C130.852 21.8021 130.995 21.8589 131.113 21.9725C131.234 22.086 131.295 22.2226 131.295 22.3821C131.295 22.5416 131.234 22.6781 131.113 22.7917C130.995 22.9053 130.852 22.9621 130.686 22.9621ZM135.022 29.5743C134.486 29.5743 134.023 29.4559 133.634 29.2191C133.247 28.9798 132.949 28.6463 132.738 28.2185C132.531 27.7884 132.427 27.2881 132.427 26.7177C132.427 26.1474 132.531 25.6447 132.738 25.2097C132.949 24.7723 133.241 24.4315 133.616 24.1874C133.993 23.9409 134.433 23.8176 134.935 23.8176C135.225 23.8176 135.512 23.866 135.794 23.9626C136.077 24.0593 136.335 24.2164 136.567 24.4339C136.799 24.649 136.983 24.9342 137.121 25.2894C137.259 25.6447 137.328 26.0821 137.328 26.6017V26.9642H133.036V26.2247H136.458C136.458 25.9105 136.395 25.6302 136.269 25.3837C136.146 25.1372 135.97 24.9426 135.74 24.8C135.513 24.6575 135.245 24.5862 134.935 24.5862C134.594 24.5862 134.3 24.6708 134.051 24.8399C133.804 25.0067 133.614 25.2242 133.482 25.4924C133.349 25.7607 133.282 26.0483 133.282 26.3552V26.8482C133.282 27.2688 133.355 27.6252 133.5 27.9176C133.647 28.2077 133.851 28.4288 134.112 28.581C134.373 28.7309 134.677 28.8058 135.022 28.8058C135.247 28.8058 135.45 28.7744 135.631 28.7115C135.815 28.6463 135.973 28.5496 136.106 28.4215C136.239 28.291 136.342 28.1291 136.414 27.9358L137.241 28.1678C137.154 28.4481 137.008 28.6946 136.802 28.9073C136.597 29.1176 136.343 29.2819 136.041 29.4003C135.739 29.5163 135.399 29.5743 135.022 29.5743ZM140.891 29.5743C140.369 29.5743 139.92 29.4511 139.543 29.2046C139.166 28.9581 138.876 28.6185 138.673 28.1859C138.47 27.7533 138.368 27.2591 138.368 26.7032C138.368 26.1377 138.472 25.6387 138.68 25.2061C138.89 24.771 139.183 24.4315 139.557 24.1874C139.934 23.9409 140.374 23.8176 140.877 23.8176C141.268 23.8176 141.621 23.8901 141.935 24.0351C142.25 24.1802 142.507 24.3832 142.707 24.6442C142.908 24.9052 143.033 25.2097 143.081 25.5577H142.225C142.16 25.3039 142.015 25.0792 141.79 24.8834C141.568 24.6853 141.268 24.5862 140.891 24.5862C140.558 24.5862 140.265 24.6732 140.014 24.8472C139.765 25.0188 139.571 25.2616 139.43 25.5758C139.293 25.8876 139.224 26.2537 139.224 26.6742C139.224 27.1044 139.291 27.479 139.427 27.798C139.565 28.117 139.758 28.3647 140.007 28.5412C140.258 28.7176 140.553 28.8058 140.891 28.8058C141.114 28.8058 141.315 28.7671 141.497 28.6898C141.678 28.6125 141.831 28.5013 141.957 28.3563C142.083 28.2113 142.172 28.0373 142.225 27.8343H143.081C143.033 28.1629 142.913 28.459 142.722 28.7224C142.533 28.9834 142.283 29.1913 141.972 29.3459C141.662 29.4982 141.302 29.5743 140.891 29.5743ZM146.753 23.8901V24.6152H143.868V23.8901H146.753ZM144.709 22.5561H145.564V27.8633C145.564 28.1049 145.599 28.2862 145.669 28.407C145.742 28.5255 145.834 28.6052 145.945 28.6463C146.058 28.685 146.178 28.7043 146.304 28.7043C146.398 28.7043 146.475 28.6995 146.536 28.6898C146.596 28.6777 146.644 28.668 146.681 28.6608L146.855 29.4293C146.797 29.4511 146.716 29.4728 146.612 29.4946C146.508 29.5187 146.376 29.5308 146.217 29.5308C145.975 29.5308 145.738 29.4789 145.506 29.3749C145.276 29.271 145.086 29.1127 144.933 28.9001C144.783 28.6874 144.709 28.4191 144.709 28.0953V22.5561ZM151.884 25.1372L151.116 25.3547C151.068 25.2266 150.996 25.1021 150.902 24.9813C150.81 24.858 150.685 24.7565 150.525 24.6768C150.366 24.597 150.161 24.5572 149.912 24.5572C149.572 24.5572 149.288 24.6357 149.06 24.7928C148.836 24.9475 148.723 25.1444 148.723 25.3837C148.723 25.5964 148.801 25.7643 148.955 25.8876C149.11 26.0108 149.352 26.1135 149.68 26.1957L150.507 26.3987C151.005 26.5196 151.376 26.7044 151.62 26.9534C151.864 27.1999 151.986 27.5177 151.986 27.9068C151.986 28.2258 151.894 28.511 151.71 28.7623C151.529 29.0136 151.275 29.2118 150.949 29.3568C150.623 29.5018 150.243 29.5743 149.811 29.5743C149.243 29.5743 148.773 29.4511 148.401 29.2046C148.029 28.9581 147.793 28.598 147.694 28.1243L148.506 27.9213C148.583 28.2209 148.729 28.4457 148.944 28.5955C149.162 28.7454 149.446 28.8203 149.796 28.8203C150.195 28.8203 150.512 28.7357 150.746 28.5665C150.983 28.395 151.101 28.1895 151.101 27.9503C151.101 27.7569 151.034 27.595 150.898 27.4645C150.763 27.3316 150.555 27.2325 150.275 27.1672L149.347 26.9497C148.837 26.8289 148.462 26.6416 148.223 26.3878C147.986 26.1317 147.868 25.8115 147.868 25.4272C147.868 25.113 147.956 24.8351 148.132 24.5934C148.311 24.3517 148.554 24.162 148.861 24.0243C149.17 23.8865 149.521 23.8176 149.912 23.8176C150.463 23.8176 150.896 23.9385 151.21 24.1802C151.527 24.4218 151.752 24.7408 151.884 25.1372Z" fill="#1C1C1C" fill-opacity="0.4"/>
<path d="M171.997 25.7462C171.997 26.5292 171.855 27.2059 171.573 27.7763C171.29 28.3466 170.902 28.7865 170.409 29.0958C169.916 29.4052 169.353 29.5598 168.72 29.5598C168.086 29.5598 167.523 29.4052 167.03 29.0958C166.537 28.7865 166.149 28.3466 165.867 27.7763C165.584 27.2059 165.443 26.5292 165.443 25.7462C165.443 24.9632 165.584 24.2865 165.867 23.7161C166.149 23.1458 166.537 22.7059 167.03 22.3966C167.523 22.0872 168.086 21.9326 168.72 21.9326C169.353 21.9326 169.916 22.0872 170.409 22.3966C170.902 22.7059 171.29 23.1458 171.573 23.7161C171.855 24.2865 171.997 24.9632 171.997 25.7462ZM171.127 25.7462C171.127 25.1033 171.019 24.5608 170.804 24.1185C170.591 23.6763 170.303 23.3415 169.938 23.1144C169.575 22.8872 169.169 22.7736 168.72 22.7736C168.27 22.7736 167.863 22.8872 167.498 23.1144C167.135 23.3415 166.847 23.6763 166.632 24.1185C166.419 24.5608 166.313 25.1033 166.313 25.7462C166.313 26.3891 166.419 26.9316 166.632 27.3739C166.847 27.8161 167.135 28.1509 167.498 28.378C167.863 28.6052 168.27 28.7188 168.72 28.7188C169.169 28.7188 169.575 28.6052 169.938 28.378C170.303 28.1509 170.591 27.8161 170.804 27.3739C171.019 26.9316 171.127 26.3891 171.127 25.7462ZM173.392 31.5464V23.8901H174.219V24.7747H174.32C174.383 24.678 174.47 24.5547 174.581 24.4049C174.695 24.2527 174.857 24.1173 175.067 23.9989C175.28 23.8781 175.567 23.8176 175.93 23.8176C176.399 23.8176 176.812 23.9349 177.17 24.1693C177.527 24.4037 177.807 24.736 178.007 25.1662C178.208 25.5964 178.308 26.1039 178.308 26.6887C178.308 27.2784 178.208 27.7896 178.007 28.2222C177.807 28.6523 177.529 28.9858 177.173 29.2227C176.818 29.4571 176.408 29.5743 175.944 29.5743C175.587 29.5743 175.3 29.5151 175.085 29.3967C174.87 29.2759 174.705 29.1393 174.589 28.9871C174.473 28.8324 174.383 28.7043 174.32 28.6028H174.248V31.5464H173.392ZM174.233 26.6742C174.233 27.0947 174.295 27.4657 174.418 27.7871C174.542 28.1062 174.722 28.3563 174.958 28.5375C175.195 28.7164 175.485 28.8058 175.828 28.8058C176.186 28.8058 176.485 28.7115 176.724 28.523C176.966 28.3321 177.147 28.0759 177.268 27.7545C177.391 27.4307 177.453 27.0706 177.453 26.6742C177.453 26.2827 177.392 25.9299 177.271 25.6157C177.153 25.2991 176.973 25.049 176.731 24.8653C176.492 24.6792 176.191 24.5862 175.828 24.5862C175.48 24.5862 175.188 24.6744 174.951 24.8508C174.714 25.0248 174.536 25.2689 174.415 25.5831C174.294 25.8948 174.233 26.2586 174.233 26.6742ZM181.948 29.5743C181.411 29.5743 180.948 29.4559 180.559 29.2191C180.173 28.9798 179.874 28.6463 179.664 28.2185C179.456 27.7884 179.352 27.2881 179.352 26.7177C179.352 26.1474 179.456 25.6447 179.664 25.2097C179.874 24.7723 180.167 24.4315 180.541 24.1874C180.918 23.9409 181.358 23.8176 181.861 23.8176C182.151 23.8176 182.437 23.866 182.72 23.9626C183.003 24.0593 183.26 24.2164 183.492 24.4339C183.724 24.649 183.909 24.9342 184.047 25.2894C184.184 25.6447 184.253 26.0821 184.253 26.6017V26.9642H179.961V26.2247H183.383C183.383 25.9105 183.32 25.6302 183.195 25.3837C183.071 25.1372 182.895 24.9426 182.665 24.8C182.438 24.6575 182.17 24.5862 181.861 24.5862C181.52 24.5862 181.225 24.6708 180.976 24.8399C180.73 25.0067 180.54 25.2242 180.407 25.4924C180.274 25.7607 180.208 26.0483 180.208 26.3552V26.8482C180.208 27.2688 180.28 27.6252 180.425 27.9176C180.573 28.2077 180.777 28.4288 181.038 28.581C181.299 28.7309 181.602 28.8058 181.948 28.8058C182.172 28.8058 182.375 28.7744 182.557 28.7115C182.74 28.6463 182.899 28.5496 183.032 28.4215C183.165 28.291 183.267 28.1291 183.34 27.9358L184.166 28.1678C184.079 28.4481 183.933 28.6946 183.728 28.9073C183.522 29.1176 183.268 29.2819 182.966 29.4003C182.664 29.5163 182.325 29.5743 181.948 29.5743ZM185.555 29.4583V23.8901H186.381V24.7312H186.439C186.541 24.4557 186.724 24.2321 186.99 24.0605C187.256 23.8889 187.556 23.8031 187.889 23.8031C187.952 23.8031 188.031 23.8043 188.125 23.8068C188.219 23.8092 188.29 23.8128 188.339 23.8176V24.6877C188.31 24.6804 188.243 24.6695 188.139 24.655C188.038 24.6381 187.93 24.6297 187.817 24.6297C187.546 24.6297 187.304 24.6865 187.092 24.8C186.881 24.9112 186.715 25.0659 186.591 25.2641C186.471 25.4598 186.41 25.6834 186.41 25.9347V29.4583H185.555ZM191.286 29.5743C190.822 29.5743 190.412 29.4571 190.057 29.2227C189.702 28.9858 189.424 28.6523 189.223 28.2222C189.023 27.7896 188.922 27.2784 188.922 26.6887C188.922 26.1039 189.023 25.5964 189.223 25.1662C189.424 24.736 189.703 24.4037 190.061 24.1693C190.418 23.9349 190.832 23.8176 191.3 23.8176C191.663 23.8176 191.949 23.8781 192.16 23.9989C192.372 24.1173 192.534 24.2527 192.645 24.4049C192.759 24.5547 192.847 24.678 192.91 24.7747H192.983V23.8901H193.838V29.4583H193.012V28.6028H192.91C192.847 28.7043 192.758 28.8324 192.642 28.9871C192.526 29.1393 192.36 29.2759 192.145 29.3967C191.93 29.5151 191.644 29.5743 191.286 29.5743ZM191.402 28.8058C191.745 28.8058 192.035 28.7164 192.272 28.5375C192.509 28.3563 192.689 28.1062 192.812 27.7871C192.935 27.4657 192.997 27.0947 192.997 26.6742C192.997 26.2586 192.937 25.8948 192.816 25.5831C192.695 25.2689 192.516 25.0248 192.279 24.8508C192.042 24.6744 191.75 24.5862 191.402 24.5862C191.039 24.5862 190.737 24.6792 190.496 24.8653C190.256 25.049 190.076 25.2991 189.956 25.6157C189.837 25.9299 189.778 26.2827 189.778 26.6742C189.778 27.0706 189.838 27.4307 189.959 27.7545C190.082 28.0759 190.264 28.3321 190.503 28.523C190.745 28.7115 191.044 28.8058 191.402 28.8058ZM197.945 23.8901V24.6152H195.06V23.8901H197.945ZM195.901 22.5561H196.756V27.8633C196.756 28.1049 196.791 28.2862 196.861 28.407C196.934 28.5255 197.026 28.6052 197.137 28.6463C197.251 28.685 197.37 28.7043 197.496 28.7043C197.59 28.7043 197.667 28.6995 197.728 28.6898C197.788 28.6777 197.837 28.668 197.873 28.6608L198.047 29.4293C197.989 29.4511 197.908 29.4728 197.804 29.4946C197.7 29.5187 197.568 29.5308 197.409 29.5308C197.167 29.5308 196.93 29.4789 196.698 29.3749C196.469 29.271 196.278 29.1127 196.126 28.9001C195.976 28.6874 195.901 28.4191 195.901 28.0953V22.5561ZM199.232 29.4583V23.8901H200.088V29.4583H199.232ZM199.667 22.9621C199.501 22.9621 199.357 22.9053 199.236 22.7917C199.117 22.6781 199.058 22.5416 199.058 22.3821C199.058 22.2226 199.117 22.086 199.236 21.9725C199.357 21.8589 199.501 21.8021 199.667 21.8021C199.834 21.8021 199.977 21.8589 200.095 21.9725C200.216 22.086 200.276 22.2226 200.276 22.3821C200.276 22.5416 200.216 22.6781 200.095 22.7917C199.977 22.9053 199.834 22.9621 199.667 22.9621ZM202.51 26.1087V29.4583H201.655V23.8901H202.481V24.7602H202.554C202.684 24.4774 202.882 24.2502 203.148 24.0786C203.414 23.9046 203.757 23.8176 204.178 23.8176C204.555 23.8176 204.885 23.895 205.167 24.0496C205.45 24.2019 205.67 24.4339 205.827 24.7457C205.984 25.055 206.063 25.4465 206.063 25.9202V29.4583H205.207V25.9782C205.207 25.5408 205.094 25.2 204.867 24.9559C204.639 24.7094 204.328 24.5862 203.931 24.5862C203.658 24.5862 203.414 24.6454 203.199 24.7638C202.986 24.8822 202.818 25.055 202.695 25.2822C202.572 25.5094 202.51 25.7849 202.51 26.1087ZM209.874 31.6624C209.461 31.6624 209.105 31.6092 208.808 31.5029C208.511 31.399 208.263 31.2612 208.065 31.0896C207.869 30.9205 207.713 30.7392 207.597 30.5459L208.279 30.0673C208.356 30.1688 208.454 30.2849 208.572 30.4154C208.691 30.5483 208.853 30.6631 209.058 30.7597C209.266 30.8588 209.538 30.9084 209.874 30.9084C210.323 30.9084 210.694 30.7996 210.987 30.5821C211.279 30.3646 211.425 30.0238 211.425 29.5598V28.4288H211.353C211.29 28.5303 211.201 28.656 211.085 28.8058C210.971 28.9532 210.807 29.0849 210.592 29.2009C210.379 29.3145 210.091 29.3713 209.729 29.3713C209.279 29.3713 208.876 29.265 208.518 29.0523C208.163 28.8396 207.881 28.5303 207.673 28.1243C207.468 27.7183 207.365 27.2253 207.365 26.6452C207.365 26.0749 207.465 25.5782 207.666 25.1553C207.867 24.73 208.146 24.4013 208.503 24.1693C208.861 23.9349 209.274 23.8176 209.743 23.8176C210.106 23.8176 210.393 23.8781 210.606 23.9989C210.821 24.1173 210.985 24.2527 211.099 24.4049C211.215 24.5547 211.304 24.678 211.367 24.7747H211.454V23.8901H212.281V29.6178C212.281 30.0963 212.172 30.4854 211.955 30.7851C211.74 31.0872 211.449 31.3083 211.085 31.4485C210.722 31.5911 210.318 31.6624 209.874 31.6624ZM209.845 28.6028C210.188 28.6028 210.478 28.5243 210.715 28.3672C210.952 28.2101 211.132 27.9841 211.255 27.6893C211.378 27.3944 211.44 27.0416 211.44 26.6307C211.44 26.2296 211.379 25.8755 211.259 25.5686C211.138 25.2616 210.959 25.0212 210.722 24.8472C210.485 24.6732 210.193 24.5862 209.845 24.5862C209.482 24.5862 209.18 24.678 208.939 24.8617C208.699 25.0453 208.519 25.2919 208.398 25.6012C208.28 25.9105 208.221 26.2537 208.221 26.6307C208.221 27.0174 208.281 27.3594 208.402 27.6566C208.525 27.9515 208.706 28.1835 208.946 28.3527C209.187 28.5194 209.487 28.6028 209.845 28.6028ZM220.894 23.8901C220.851 23.5228 220.674 23.2376 220.365 23.0346C220.056 22.8316 219.676 22.7301 219.227 22.7301C218.898 22.7301 218.61 22.7833 218.364 22.8896C218.12 22.9959 217.929 23.1422 217.791 23.3282C217.656 23.5143 217.588 23.7258 217.588 23.9626C217.588 24.1608 217.635 24.3312 217.729 24.4738C217.826 24.614 217.949 24.7312 218.099 24.8254C218.249 24.9173 218.406 24.9934 218.57 25.0538C218.735 25.1118 218.886 25.1589 219.024 25.1952L219.778 25.3982C219.971 25.4489 220.186 25.519 220.423 25.6084C220.662 25.6979 220.891 25.8199 221.108 25.9746C221.328 26.1268 221.509 26.3226 221.652 26.5619C221.794 26.8011 221.866 27.0947 221.866 27.4428C221.866 27.8439 221.761 28.2064 221.55 28.5303C221.342 28.8541 221.038 29.1115 220.637 29.3024C220.238 29.4934 219.753 29.5888 219.183 29.5888C218.651 29.5888 218.191 29.503 217.802 29.3314C217.415 29.1599 217.111 28.9206 216.888 28.6137C216.668 28.3067 216.544 27.9503 216.515 27.5443H217.443C217.467 27.8246 217.561 28.0566 217.726 28.2403C217.893 28.4215 218.103 28.5569 218.357 28.6463C218.613 28.7333 218.888 28.7768 219.183 28.7768C219.526 28.7768 219.834 28.7212 220.107 28.61C220.381 28.4965 220.597 28.3394 220.756 28.1388C220.916 27.9358 220.996 27.6989 220.996 27.4283C220.996 27.1817 220.927 26.9812 220.789 26.8265C220.651 26.6718 220.47 26.5461 220.245 26.4495C220.02 26.3528 219.778 26.2682 219.517 26.1957L218.603 25.9347C218.023 25.768 217.564 25.5299 217.226 25.2206C216.887 24.9112 216.718 24.5064 216.718 24.0061C216.718 23.5905 216.83 23.228 217.055 22.9186C217.282 22.6068 217.587 22.3652 217.969 22.1936C218.353 22.0196 218.782 21.9326 219.256 21.9326C219.734 21.9326 220.159 22.0184 220.532 22.19C220.904 22.3591 221.199 22.5911 221.416 22.886C221.636 23.1808 221.752 23.5155 221.764 23.8901H220.894ZM225.649 23.8901V24.6152H222.764V23.8901H225.649ZM223.605 22.5561H224.46V27.8633C224.46 28.1049 224.495 28.2862 224.565 28.407C224.638 28.5255 224.73 28.6052 224.841 28.6463C224.955 28.685 225.074 28.7043 225.2 28.7043C225.294 28.7043 225.371 28.6995 225.432 28.6898C225.492 28.6777 225.541 28.668 225.577 28.6608L225.751 29.4293C225.693 29.4511 225.612 29.4728 225.508 29.4946C225.404 29.5187 225.272 29.5308 225.113 29.5308C224.871 29.5308 224.634 29.4789 224.402 29.3749C224.173 29.271 223.982 29.1127 223.83 28.9001C223.68 28.6874 223.605 28.4191 223.605 28.0953V22.5561ZM228.979 29.5743C228.515 29.5743 228.105 29.4571 227.75 29.2227C227.395 28.9858 227.117 28.6523 226.916 28.2222C226.716 27.7896 226.615 27.2784 226.615 26.6887C226.615 26.1039 226.716 25.5964 226.916 25.1662C227.117 24.736 227.396 24.4037 227.754 24.1693C228.111 23.9349 228.525 23.8176 228.994 23.8176C229.356 23.8176 229.642 23.8781 229.853 23.9989C230.065 24.1173 230.227 24.2527 230.338 24.4049C230.452 24.5547 230.54 24.678 230.603 24.7747H230.676V23.8901H231.531V29.4583H230.705V28.6028H230.603C230.54 28.7043 230.451 28.8324 230.335 28.9871C230.219 29.1393 230.053 29.2759 229.838 29.3967C229.623 29.5151 229.337 29.5743 228.979 29.5743ZM229.095 28.8058C229.438 28.8058 229.728 28.7164 229.965 28.5375C230.202 28.3563 230.382 28.1062 230.505 27.7871C230.628 27.4657 230.69 27.0947 230.69 26.6742C230.69 26.2586 230.63 25.8948 230.509 25.5831C230.388 25.2689 230.209 25.0248 229.972 24.8508C229.736 24.6744 229.443 24.5862 229.095 24.5862C228.733 24.5862 228.43 24.6792 228.189 24.8653C227.95 25.049 227.769 25.2991 227.649 25.6157C227.53 25.9299 227.471 26.2827 227.471 26.6742C227.471 27.0706 227.531 27.4307 227.652 27.7545C227.776 28.0759 227.957 28.3321 228.196 28.523C228.438 28.7115 228.737 28.8058 229.095 28.8058ZM235.638 23.8901V24.6152H232.753V23.8901H235.638ZM233.594 22.5561H234.449V27.8633C234.449 28.1049 234.484 28.2862 234.554 28.407C234.627 28.5255 234.719 28.6052 234.83 28.6463C234.944 28.685 235.063 28.7043 235.189 28.7043C235.283 28.7043 235.36 28.6995 235.421 28.6898C235.481 28.6777 235.53 28.668 235.566 28.6608L235.74 29.4293C235.682 29.4511 235.601 29.4728 235.497 29.4946C235.393 29.5187 235.261 29.5308 235.102 29.5308C234.86 29.5308 234.623 29.4789 234.391 29.3749C234.162 29.271 233.971 29.1127 233.819 28.9001C233.669 28.6874 233.594 28.4191 233.594 28.0953V22.5561ZM240.434 27.1817V23.8901H241.29V29.4583H240.434V28.5158H240.376C240.246 28.7986 240.043 29.039 239.767 29.2372C239.492 29.4329 239.144 29.5308 238.723 29.5308C238.375 29.5308 238.066 29.4547 237.795 29.3024C237.525 29.1478 237.312 28.9158 237.157 28.6064C237.003 28.2947 236.925 27.9019 236.925 27.4283V23.8901H237.781V27.3703C237.781 27.7763 237.894 28.1001 238.122 28.3418C238.351 28.5835 238.644 28.7043 238.999 28.7043C239.212 28.7043 239.428 28.6499 239.648 28.5412C239.87 28.4324 240.056 28.2657 240.206 28.0409C240.358 27.8161 240.434 27.5298 240.434 27.1817ZM246.801 25.1372L246.033 25.3547C245.984 25.2266 245.913 25.1021 245.819 24.9813C245.727 24.858 245.601 24.7565 245.442 24.6768C245.282 24.597 245.078 24.5572 244.829 24.5572C244.488 24.5572 244.204 24.6357 243.977 24.7928C243.752 24.9475 243.64 25.1444 243.64 25.3837C243.64 25.5964 243.717 25.7643 243.872 25.8876C244.027 26.0108 244.268 26.1135 244.597 26.1957L245.424 26.3987C245.921 26.5196 246.292 26.7044 246.536 26.9534C246.781 27.1999 246.903 27.5177 246.903 27.9068C246.903 28.2258 246.811 28.511 246.627 28.7623C246.446 29.0136 246.192 29.2118 245.866 29.3568C245.54 29.5018 245.16 29.5743 244.727 29.5743C244.16 29.5743 243.689 29.4511 243.317 29.2046C242.945 28.9581 242.71 28.598 242.61 28.1243L243.422 27.9213C243.5 28.2209 243.646 28.4457 243.861 28.5955C244.079 28.7454 244.363 28.8203 244.713 28.8203C245.112 28.8203 245.428 28.7357 245.663 28.5665C245.9 28.395 246.018 28.1895 246.018 27.9503C246.018 27.7569 245.95 27.595 245.815 27.4645C245.68 27.3316 245.472 27.2325 245.192 27.1672L244.263 26.9497C243.754 26.8289 243.379 26.6416 243.14 26.3878C242.903 26.1317 242.784 25.8115 242.784 25.4272C242.784 25.113 242.873 24.8351 243.049 24.5934C243.228 24.3517 243.471 24.162 243.778 24.0243C244.087 23.8865 244.437 23.8176 244.829 23.8176C245.38 23.8176 245.813 23.9385 246.127 24.1802C246.443 24.4218 246.668 24.7408 246.801 25.1372Z" fill="#1C1C1C" fill-opacity="0.4"/>
<path d="M261.53 19.6415V31.8509H260.805V19.6415H261.53Z" fill="#1C1C1C" fill-opacity="0.2"/>
<path d="M286.104 25.9583C286.104 27.1664 285.125 28.1458 283.917 28.1458C282.708 28.1458 281.729 27.1664 281.729 25.9583C281.729 24.7502 282.708 23.7708 283.917 23.7708C285.125 23.7708 286.104 24.7502 286.104 25.9583Z" fill="#1C1C1C"/>
<path d="M290.172 23.2783V22.5947H294.945V23.2783H292.944V28.9583H292.173V23.2783H290.172ZM296.768 26.0872V28.9583H296.035V22.5947H296.768V24.9313H296.83C296.942 24.6848 297.11 24.4891 297.334 24.3441C297.559 24.197 297.86 24.1235 298.235 24.1235C298.56 24.1235 298.845 24.1887 299.089 24.3192C299.334 24.4476 299.523 24.6455 299.658 24.9127C299.794 25.1778 299.863 25.5155 299.863 25.9257V28.9583H299.13V25.9754C299.13 25.5963 299.031 25.3032 298.834 25.096C298.64 24.8868 298.369 24.7822 298.023 24.7822C297.783 24.7822 297.568 24.8329 297.377 24.9344C297.189 25.0359 297.039 25.1841 296.93 25.3788C296.822 25.5735 296.768 25.8096 296.768 26.0872ZM301.204 28.9583V24.1856H301.938V28.9583H301.204ZM301.577 23.3901C301.434 23.3901 301.311 23.3415 301.207 23.2441C301.106 23.1467 301.055 23.0297 301.055 22.893C301.055 22.7563 301.106 22.6392 301.207 22.5419C301.311 22.4445 301.434 22.3958 301.577 22.3958C301.72 22.3958 301.842 22.4445 301.944 22.5419C302.047 22.6392 302.099 22.7563 302.099 22.893C302.099 23.0297 302.047 23.1467 301.944 23.2441C301.842 23.3415 301.72 23.3901 301.577 23.3901ZM306.661 25.2545L306.003 25.4409C305.961 25.3311 305.9 25.2245 305.819 25.1209C305.741 25.0152 305.633 24.9282 305.496 24.8599C305.36 24.7915 305.184 24.7573 304.971 24.7573C304.679 24.7573 304.436 24.8247 304.241 24.9593C304.048 25.0919 303.952 25.2607 303.952 25.4658C303.952 25.6481 304.018 25.792 304.151 25.8977C304.283 26.0033 304.491 26.0914 304.772 26.1618L305.481 26.3358C305.907 26.4394 306.225 26.5979 306.435 26.8112C306.644 27.0225 306.748 27.2949 306.748 27.6284C306.748 27.9019 306.67 28.1463 306.512 28.3617C306.357 28.5772 306.139 28.747 305.86 28.8713C305.58 28.9956 305.255 29.0578 304.884 29.0578C304.397 29.0578 303.994 28.9521 303.675 28.7408C303.356 28.5295 303.154 28.2209 303.069 27.8149L303.766 27.6409C303.832 27.8977 303.957 28.0904 304.141 28.2188C304.328 28.3472 304.571 28.4114 304.872 28.4114C305.213 28.4114 305.485 28.3389 305.686 28.1939C305.889 28.0469 305.99 27.8708 305.99 27.6657C305.99 27.5 305.932 27.3612 305.816 27.2493C305.7 27.1354 305.522 27.0505 305.282 26.9945L304.486 26.8081C304.049 26.7045 303.728 26.544 303.523 26.3265C303.32 26.1069 303.219 25.8324 303.219 25.5031C303.219 25.2338 303.294 24.9956 303.445 24.7884C303.599 24.5813 303.807 24.4186 304.07 24.3006C304.335 24.1825 304.636 24.1235 304.971 24.1235C305.443 24.1235 305.814 24.227 306.084 24.4342C306.355 24.6413 306.548 24.9148 306.661 25.2545ZM310.786 30.7481C310.661 30.7481 310.55 30.7377 310.453 30.717C310.356 30.6984 310.288 30.6797 310.251 30.6611L310.438 30.0148C310.616 30.0604 310.773 30.0769 310.91 30.0645C311.047 30.0521 311.168 29.991 311.273 29.8812C311.381 29.7735 311.48 29.5984 311.569 29.3561L311.705 28.9832L309.94 24.1856H310.736L312.053 27.9889H312.103L313.42 24.1856H314.216L312.19 29.6543C312.099 29.9009 311.986 30.1049 311.851 30.2665C311.717 30.4301 311.56 30.5513 311.382 30.63C311.206 30.7087 311.007 30.7481 310.786 30.7481ZM317.014 29.0578C316.554 29.0578 316.157 28.9563 315.824 28.7532C315.493 28.5482 315.237 28.2623 315.056 27.8956C314.878 27.5269 314.789 27.0981 314.789 26.6092C314.789 26.1204 314.878 25.6895 315.056 25.3166C315.237 24.9417 315.487 24.6496 315.808 24.4404C316.132 24.2291 316.509 24.1235 316.939 24.1235C317.188 24.1235 317.434 24.1649 317.676 24.2477C317.918 24.3306 318.139 24.4652 318.338 24.6517C318.537 24.836 318.695 25.0805 318.813 25.385C318.931 25.6895 318.99 26.0644 318.99 26.5098V26.8205H315.311V26.1867H318.244C318.244 25.9174 318.191 25.6771 318.083 25.4658C317.977 25.2545 317.826 25.0877 317.629 24.9655C317.435 24.8433 317.205 24.7822 316.939 24.7822C316.647 24.7822 316.395 24.8547 316.181 24.9997C315.97 25.1426 315.807 25.3291 315.693 25.559C315.58 25.7889 315.523 26.0354 315.523 26.2985V26.7211C315.523 27.0815 315.585 27.3871 315.709 27.6377C315.835 27.8863 316.01 28.0759 316.234 28.2064C316.458 28.3348 316.718 28.399 317.014 28.399C317.207 28.399 317.381 28.3721 317.536 28.3182C317.693 28.2623 317.829 28.1794 317.943 28.0697C318.057 27.9578 318.145 27.819 318.207 27.6533L318.916 27.8521C318.841 28.0924 318.716 28.3037 318.54 28.486C318.364 28.6662 318.146 28.8071 317.887 28.9086C317.628 29.008 317.337 29.0578 317.014 29.0578ZM321.908 29.0578C321.51 29.0578 321.159 28.9573 320.855 28.7564C320.55 28.5533 320.312 28.2675 320.14 27.8988C319.968 27.528 319.882 27.0898 319.882 26.5844C319.882 26.0831 319.968 25.6481 320.14 25.2793C320.312 24.9106 320.551 24.6258 320.858 24.4249C321.164 24.2239 321.518 24.1235 321.92 24.1235C322.231 24.1235 322.477 24.1752 322.657 24.2788C322.839 24.3803 322.978 24.4963 323.073 24.6268C323.171 24.7553 323.246 24.8609 323.3 24.9438H323.362V24.1856H324.095V28.9583H323.387V28.225H323.3C323.246 28.312 323.169 28.4218 323.07 28.5544C322.971 28.6849 322.829 28.8019 322.644 28.9055C322.46 29.007 322.215 29.0578 321.908 29.0578ZM322.007 28.399C322.302 28.399 322.55 28.3224 322.753 28.1691C322.956 28.0137 323.11 27.7993 323.216 27.5259C323.322 27.2504 323.375 26.9324 323.375 26.572C323.375 26.2157 323.323 25.9039 323.219 25.6367C323.116 25.3674 322.962 25.1582 322.759 25.009C322.556 24.8578 322.306 24.7822 322.007 24.7822C321.697 24.7822 321.438 24.8619 321.231 25.0214C321.025 25.1789 320.871 25.3933 320.768 25.6646C320.666 25.9339 320.615 26.2364 320.615 26.572C320.615 26.9117 320.667 27.2203 320.771 27.4979C320.876 27.7734 321.032 27.993 321.237 28.1567C321.444 28.3182 321.701 28.399 322.007 28.399ZM325.54 28.9583V24.1856H326.249V24.9065H326.298C326.385 24.6703 326.543 24.4787 326.771 24.3316C326.999 24.1846 327.256 24.111 327.541 24.111C327.595 24.111 327.663 24.1121 327.743 24.1141C327.824 24.1162 327.885 24.1193 327.927 24.1235V24.8692C327.902 24.863 327.845 24.8537 327.756 24.8412C327.669 24.8267 327.577 24.8195 327.479 24.8195C327.247 24.8195 327.04 24.8682 326.858 24.9655C326.678 25.0608 326.535 25.1934 326.429 25.3632C326.325 25.531 326.274 25.7226 326.274 25.9381V28.9583H325.54Z" fill="#1C1C1C"/>
<path d="M357.188 25.9583C357.188 27.1664 356.208 28.1458 355 28.1458C353.792 28.1458 352.812 27.1664 352.812 25.9583C352.812 24.7502 353.792 23.7708 355 23.7708C356.208 23.7708 357.188 24.7502 357.188 25.9583Z" fill="#A8C5DA"/>
<path d="M361.604 28.9583V22.5947H362.375V28.2747H365.333V28.9583H361.604ZM368.229 29.0578C367.831 29.0578 367.48 28.9573 367.175 28.7564C366.871 28.5533 366.633 28.2675 366.461 27.8988C366.289 27.528 366.203 27.0898 366.203 26.5844C366.203 26.0831 366.289 25.6481 366.461 25.2793C366.633 24.9106 366.872 24.6258 367.178 24.4249C367.485 24.2239 367.839 24.1235 368.241 24.1235C368.552 24.1235 368.797 24.1752 368.978 24.2788C369.16 24.3803 369.299 24.4963 369.394 24.6268C369.491 24.7553 369.567 24.8609 369.621 24.9438H369.683V24.1856H370.416V28.9583H369.708V28.225H369.621C369.567 28.312 369.49 28.4218 369.391 28.5544C369.291 28.6849 369.15 28.8019 368.965 28.9055C368.781 29.007 368.535 29.0578 368.229 29.0578ZM368.328 28.399C368.622 28.399 368.871 28.3224 369.074 28.1691C369.277 28.0137 369.431 27.7993 369.537 27.5259C369.643 27.2504 369.695 26.9324 369.695 26.572C369.695 26.2157 369.644 25.9039 369.54 25.6367C369.436 25.3674 369.283 25.1582 369.08 25.009C368.877 24.8578 368.626 24.7822 368.328 24.7822C368.017 24.7822 367.759 24.8619 367.551 25.0214C367.346 25.1789 367.192 25.3933 367.088 25.6646C366.987 25.9339 366.936 26.2364 366.936 26.572C366.936 26.9117 366.988 27.2203 367.091 27.4979C367.197 27.7734 367.352 27.993 367.558 28.1567C367.765 28.3182 368.022 28.399 368.328 28.399ZM375.242 25.2545L374.583 25.4409C374.542 25.3311 374.481 25.2245 374.4 25.1209C374.321 25.0152 374.213 24.9282 374.077 24.8599C373.94 24.7915 373.765 24.7573 373.551 24.7573C373.259 24.7573 373.016 24.8247 372.821 24.9593C372.629 25.0919 372.532 25.2607 372.532 25.4658C372.532 25.6481 372.599 25.792 372.731 25.8977C372.864 26.0033 373.071 26.0914 373.353 26.1618L374.061 26.3358C374.488 26.4394 374.806 26.5979 375.015 26.8112C375.224 27.0225 375.329 27.2949 375.329 27.6284C375.329 27.9019 375.25 28.1463 375.093 28.3617C374.937 28.5772 374.72 28.747 374.44 28.8713C374.16 28.9956 373.835 29.0578 373.464 29.0578C372.978 29.0578 372.575 28.9521 372.256 28.7408C371.937 28.5295 371.735 28.2209 371.65 27.8149L372.346 27.6409C372.412 27.8977 372.537 28.0904 372.722 28.2188C372.908 28.3472 373.152 28.4114 373.452 28.4114C373.794 28.4114 374.065 28.3389 374.266 28.1939C374.469 28.0469 374.571 27.8708 374.571 27.6657C374.571 27.5 374.513 27.3612 374.397 27.2493C374.281 27.1354 374.102 27.0505 373.862 26.9945L373.067 26.8081C372.63 26.7045 372.309 26.544 372.103 26.3265C371.9 26.1069 371.799 25.8324 371.799 25.5031C371.799 25.2338 371.875 24.9956 372.026 24.7884C372.179 24.5813 372.387 24.4186 372.65 24.3006C372.915 24.1825 373.216 24.1235 373.551 24.1235C374.024 24.1235 374.395 24.227 374.664 24.4342C374.935 24.6413 375.128 24.9148 375.242 25.2545ZM378.508 24.1856V24.807H376.035V24.1856H378.508ZM376.756 23.0421H377.489V27.5911C377.489 27.7983 377.519 27.9536 377.579 28.0572C377.641 28.1587 377.72 28.2271 377.815 28.2623C377.913 28.2954 378.015 28.312 378.123 28.312C378.204 28.312 378.27 28.3079 378.322 28.2996C378.374 28.2892 378.415 28.2809 378.446 28.2747L378.595 28.9335C378.546 28.9521 378.476 28.9708 378.387 28.9894C378.298 29.0101 378.185 29.0205 378.048 29.0205C377.841 29.0205 377.638 28.9759 377.439 28.8869C377.243 28.7978 377.079 28.6621 376.948 28.4798C376.82 28.2975 376.756 28.0676 376.756 27.79V23.0421ZM382.545 30.7481C382.42 30.7481 382.309 30.7377 382.212 30.717C382.115 30.6984 382.047 30.6797 382.01 30.6611L382.197 30.0148C382.375 30.0604 382.532 30.0769 382.669 30.0645C382.806 30.0521 382.927 29.991 383.032 29.8812C383.14 29.7735 383.239 29.5984 383.328 29.3561L383.464 28.9832L381.699 24.1856H382.495L383.812 27.9889H383.862L385.18 24.1856H385.975L383.949 29.6543C383.858 29.9009 383.745 30.1049 383.61 30.2665C383.476 30.4301 383.319 30.5513 383.141 30.63C382.965 30.7087 382.766 30.7481 382.545 30.7481ZM388.773 29.0578C388.313 29.0578 387.916 28.9563 387.583 28.7532C387.252 28.5482 386.996 28.2623 386.815 27.8956C386.637 27.5269 386.548 27.0981 386.548 26.6092C386.548 26.1204 386.637 25.6895 386.815 25.3166C386.996 24.9417 387.246 24.6496 387.567 24.4404C387.891 24.2291 388.268 24.1235 388.698 24.1235C388.947 24.1235 389.193 24.1649 389.435 24.2477C389.677 24.3306 389.898 24.4652 390.097 24.6517C390.296 24.836 390.454 25.0805 390.572 25.385C390.69 25.6895 390.749 26.0644 390.749 26.5098V26.8205H387.07V26.1867H390.004C390.004 25.9174 389.95 25.6771 389.842 25.4658C389.736 25.2545 389.585 25.0877 389.388 24.9655C389.194 24.8433 388.964 24.7822 388.698 24.7822C388.406 24.7822 388.154 24.8547 387.94 24.9997C387.729 25.1426 387.566 25.3291 387.452 25.559C387.339 25.7889 387.282 26.0354 387.282 26.2985V26.7211C387.282 27.0815 387.344 27.3871 387.468 27.6377C387.594 27.8863 387.769 28.0759 387.993 28.2064C388.217 28.3348 388.477 28.399 388.773 28.399C388.966 28.399 389.14 28.3721 389.295 28.3182C389.453 28.2623 389.588 28.1794 389.702 28.0697C389.816 27.9578 389.904 27.819 389.966 27.6533L390.675 27.8521C390.6 28.0924 390.475 28.3037 390.299 28.486C390.123 28.6662 389.905 28.8071 389.646 28.9086C389.387 29.008 389.096 29.0578 388.773 29.0578ZM393.667 29.0578C393.269 29.0578 392.918 28.9573 392.614 28.7564C392.309 28.5533 392.071 28.2675 391.899 27.8988C391.727 27.528 391.641 27.0898 391.641 26.5844C391.641 26.0831 391.727 25.6481 391.899 25.2793C392.071 24.9106 392.31 24.6258 392.617 24.4249C392.923 24.2239 393.278 24.1235 393.679 24.1235C393.99 24.1235 394.236 24.1752 394.416 24.2788C394.598 24.3803 394.737 24.4963 394.832 24.6268C394.93 24.7553 395.005 24.8609 395.059 24.9438H395.121V24.1856H395.854V28.9583H395.146V28.225H395.059C395.005 28.312 394.929 28.4218 394.829 28.5544C394.73 28.6849 394.588 28.8019 394.403 28.9055C394.219 29.007 393.974 29.0578 393.667 29.0578ZM393.766 28.399C394.061 28.399 394.309 28.3224 394.512 28.1691C394.715 28.0137 394.869 27.7993 394.975 27.5259C395.081 27.2504 395.134 26.9324 395.134 26.572C395.134 26.2157 395.082 25.9039 394.978 25.6367C394.875 25.3674 394.721 25.1582 394.518 25.009C394.315 24.8578 394.065 24.7822 393.766 24.7822C393.456 24.7822 393.197 24.8619 392.99 25.0214C392.785 25.1789 392.63 25.3933 392.527 25.6646C392.425 25.9339 392.374 26.2364 392.374 26.572C392.374 26.9117 392.426 27.2203 392.53 27.4979C392.635 27.7734 392.791 27.993 392.996 28.1567C393.203 28.3182 393.46 28.399 393.766 28.399ZM397.299 28.9583V24.1856H398.008V24.9065H398.058C398.145 24.6703 398.302 24.4787 398.53 24.3316C398.758 24.1846 399.015 24.111 399.3 24.111C399.354 24.111 399.422 24.1121 399.502 24.1141C399.583 24.1162 399.644 24.1193 399.686 24.1235V24.8692C399.661 24.863 399.604 24.8537 399.515 24.8412C399.428 24.8267 399.336 24.8195 399.238 24.8195C399.006 24.8195 398.799 24.8682 398.617 24.9655C398.437 25.0608 398.294 25.1934 398.188 25.3632C398.084 25.531 398.033 25.7226 398.033 25.9381V28.9583H397.299Z" fill="#1C1C1C"/>
<path d="M18.3882 54.4924H19.1712C19.194 54.7079 19.2675 54.8902 19.3918 55.0393C19.5182 55.1864 19.6818 55.2982 19.8827 55.3749C20.0837 55.4495 20.3064 55.4867 20.5508 55.4867C20.816 55.4867 21.0542 55.4422 21.2655 55.3531C21.4768 55.2641 21.6446 55.1315 21.7688 54.9554C21.8931 54.7773 21.9553 54.5566 21.9553 54.2936C21.9553 54.0636 21.9014 53.8503 21.7937 53.6535C21.686 53.4546 21.513 53.2941 21.2748 53.1718C21.0366 53.0496 20.7207 52.9885 20.3271 52.9885H19.8175V52.3671L21.4084 50.453V50.4033H18.6989V49.7197H22.4649V50.279L20.7621 52.3422V52.3919C21.0355 52.4044 21.2903 52.4603 21.5265 52.5597C21.7647 52.6591 21.9718 52.7938 22.1479 52.9637C22.3261 53.1335 22.4649 53.3313 22.5643 53.5571C22.6637 53.7829 22.7134 54.0284 22.7134 54.2936C22.7134 54.6561 22.6202 54.9792 22.4338 55.263C22.2494 55.5447 21.9936 55.7664 21.6663 55.928C21.3411 56.0895 20.9651 56.1703 20.5384 56.1703C20.1614 56.1703 19.8144 56.104 19.4974 55.9715C19.1805 55.8389 18.9226 55.6473 18.7237 55.3966C18.5249 55.146 18.413 54.8446 18.3882 54.4924ZM26.0576 56.1703C25.5895 56.1703 25.1907 56.0429 24.8613 55.7881C24.532 55.5313 24.2803 55.1594 24.1063 54.6726C23.9323 54.1838 23.8453 53.5934 23.8453 52.9015C23.8453 52.2138 23.9323 51.6265 24.1063 51.1397C24.2823 50.6508 24.5351 50.278 24.8644 50.0211C25.1959 49.7622 25.5936 49.6327 26.0576 49.6327C26.5216 49.6327 26.9183 49.7622 27.2477 50.0211C27.5791 50.278 27.8319 50.6508 28.0059 51.1397C28.1819 51.6265 28.27 52.2138 28.27 52.9015C28.27 53.5934 28.183 54.1838 28.009 54.6726C27.835 55.1594 27.5833 55.5313 27.2539 55.7881C26.9245 56.0429 26.5258 56.1703 26.0576 56.1703ZM26.0576 55.4867C26.5216 55.4867 26.8821 55.263 27.1389 54.8156C27.3958 54.3681 27.5242 53.7301 27.5242 52.9015C27.5242 52.3505 27.4652 51.8813 27.3471 51.4939C27.2311 51.1066 27.0633 50.8114 26.8438 50.6084C26.6262 50.4054 26.3642 50.3039 26.0576 50.3039C25.5977 50.3039 25.2383 50.5307 24.9794 50.9843C24.7205 51.4359 24.591 52.075 24.591 52.9015C24.591 53.4525 24.649 53.9207 24.765 54.306C24.881 54.6913 25.0478 54.9844 25.2653 55.1853C25.4848 55.3863 25.749 55.4867 26.0576 55.4867ZM29.5626 56.0833V49.7197H30.3332V52.8767H30.4078L33.2664 49.7197H34.2732L31.6009 52.5908L34.2732 56.0833H33.341L31.1286 53.1252L30.3332 54.0201V56.0833H29.5626Z" fill="#1C1C1C" fill-opacity="0.4"/>
<path d="M18.6841 100.562V100.003L20.7846 97.7038C21.0311 97.4345 21.2341 97.2005 21.3936 97.0016C21.5531 96.8007 21.6712 96.6122 21.7479 96.4361C21.8266 96.2579 21.8659 96.0715 21.8659 95.8768C21.8659 95.6531 21.8121 95.4594 21.7044 95.2957C21.5987 95.1321 21.4537 95.0057 21.2694 94.9166C21.085 94.8276 20.8778 94.783 20.6479 94.783C20.4035 94.783 20.1901 94.8338 20.0078 94.9353C19.8276 95.0347 19.6878 95.1745 19.5883 95.3548C19.491 95.535 19.4423 95.7463 19.4423 95.9886H18.709C18.709 95.6158 18.795 95.2885 18.9669 95.0067C19.1388 94.725 19.3729 94.5054 19.6691 94.348C19.9674 94.1906 20.302 94.1119 20.6728 94.1119C21.0456 94.1119 21.376 94.1906 21.664 94.348C21.9519 94.5054 22.1777 94.7178 22.3414 94.985C22.505 95.2522 22.5868 95.5495 22.5868 95.8768C22.5868 96.1109 22.5444 96.3398 22.4594 96.5635C22.3766 96.7851 22.2316 97.0327 22.0244 97.3061C21.8193 97.5775 21.5345 97.9089 21.1699 98.3004L19.7406 99.8292V99.8789H22.6987V100.562H18.6841ZM26.0576 100.65C25.5895 100.65 25.1907 100.522 24.8613 100.267C24.532 100.01 24.2803 99.6386 24.1063 99.1518C23.9323 98.6629 23.8453 98.0726 23.8453 97.3807C23.8453 96.6929 23.9323 96.1057 24.1063 95.6189C24.2823 95.13 24.5351 94.7571 24.8644 94.5003C25.1959 94.2413 25.5936 94.1119 26.0576 94.1119C26.5216 94.1119 26.9183 94.2413 27.2477 94.5003C27.5791 94.7571 27.8319 95.13 28.0059 95.6189C28.1819 96.1057 28.27 96.6929 28.27 97.3807C28.27 98.0726 28.183 98.6629 28.009 99.1518C27.835 99.6386 27.5833 100.01 27.2539 100.267C26.9245 100.522 26.5258 100.65 26.0576 100.65ZM26.0576 99.9659C26.5216 99.9659 26.8821 99.7422 27.1389 99.2947C27.3958 98.8473 27.5242 98.2093 27.5242 97.3807C27.5242 96.8297 27.4652 96.3605 27.3471 95.9731C27.2311 95.5857 27.0633 95.2905 26.8438 95.0875C26.6262 94.8845 26.3642 94.783 26.0576 94.783C25.5977 94.783 25.2383 95.0099 24.9794 95.4635C24.7205 95.9151 24.591 96.5542 24.591 97.3807C24.591 97.9317 24.649 98.3999 24.765 98.7852C24.881 99.1705 25.0478 99.4636 25.2653 99.6645C25.4848 99.8654 25.749 99.9659 26.0576 99.9659ZM29.5626 100.562V94.1989H30.3332V97.3558H30.4078L33.2664 94.1989H34.2732L31.6009 97.07L34.2732 100.562H33.341L31.1286 97.6044L30.3332 98.4993V100.562H29.5626Z" fill="#1C1C1C" fill-opacity="0.4"/>
<path d="M22.158 138.678V145.042H21.3874V139.797H21.3377C21.3087 139.855 21.2341 139.921 21.114 139.996C20.9938 140.068 20.8385 140.132 20.6479 140.188C20.4573 140.242 20.2398 140.269 19.9954 140.269V139.623C20.2419 139.623 20.4553 139.578 20.6355 139.489C20.8157 139.4 20.9659 139.295 21.086 139.175C21.2082 139.055 21.3004 138.946 21.3626 138.849C21.4268 138.752 21.4641 138.695 21.4744 138.678H22.158ZM26.0576 145.129C25.5895 145.129 25.1907 145.001 24.8613 144.746C24.532 144.49 24.2803 144.118 24.1063 143.631C23.9323 143.142 23.8453 142.552 23.8453 141.86C23.8453 141.172 23.9323 140.585 24.1063 140.098C24.2823 139.609 24.5351 139.236 24.8644 138.979C25.1959 138.721 25.5936 138.591 26.0576 138.591C26.5216 138.591 26.9183 138.721 27.2477 138.979C27.5791 139.236 27.8319 139.609 28.0059 140.098C28.1819 140.585 28.27 141.172 28.27 141.86C28.27 142.552 28.183 143.142 28.009 143.631C27.835 144.118 27.5833 144.49 27.2539 144.746C26.9245 145.001 26.5258 145.129 26.0576 145.129ZM26.0576 144.445C26.5216 144.445 26.8821 144.221 27.1389 143.774C27.3958 143.326 27.5242 142.688 27.5242 141.86C27.5242 141.309 27.4652 140.84 27.3471 140.452C27.2311 140.065 27.0633 139.77 26.8438 139.567C26.6262 139.364 26.3642 139.262 26.0576 139.262C25.5977 139.262 25.2383 139.489 24.9794 139.943C24.7205 140.394 24.591 141.033 24.591 141.86C24.591 142.411 24.649 142.879 24.765 143.264C24.881 143.65 25.0478 143.943 25.2653 144.144C25.4848 144.345 25.749 144.445 26.0576 144.445ZM29.5626 145.042V138.678H30.3332V141.835H30.4078L33.2664 138.678H34.2732L31.6009 141.549L34.2732 145.042H33.341L31.1286 142.084L30.3332 142.978V145.042H29.5626Z" fill="#1C1C1C" fill-opacity="0.4"/>
<path d="M31.7656 189.608C31.2975 189.608 30.8987 189.48 30.5693 189.226C30.24 188.969 29.9883 188.597 29.8143 188.11C29.6403 187.621 29.5533 187.031 29.5533 186.339C29.5533 185.651 29.6403 185.064 29.8143 184.577C29.9904 184.088 30.2431 183.715 30.5724 183.459C30.9039 183.2 31.3016 183.07 31.7656 183.07C32.2296 183.07 32.6263 183.2 32.9557 183.459C33.2871 183.715 33.5399 184.088 33.7139 184.577C33.8899 185.064 33.978 185.651 33.978 186.339C33.978 187.031 33.891 187.621 33.717 188.11C33.543 188.597 33.2913 188.969 32.9619 189.226C32.6325 189.48 32.2338 189.608 31.7656 189.608ZM31.7656 188.924C32.2296 188.924 32.5901 188.701 32.8469 188.253C33.1038 187.806 33.2322 187.168 33.2322 186.339C33.2322 185.788 33.1732 185.319 33.0551 184.931C32.9391 184.544 32.7713 184.249 32.5518 184.046C32.3343 183.843 32.0722 183.741 31.7656 183.741C31.3058 183.741 30.9463 183.968 30.6874 184.422C30.4285 184.873 30.299 185.512 30.299 186.339C30.299 186.89 30.357 187.358 30.473 187.743C30.589 188.129 30.7558 188.422 30.9733 188.623C31.1929 188.824 31.457 188.924 31.7656 188.924Z" fill="#1C1C1C" fill-opacity="0.4"/>
<path d="M71.6528 213.386H72.4233V217.935C72.4233 218.341 72.3488 218.686 72.1996 218.97C72.0505 219.254 71.8402 219.469 71.5689 219.616C71.2975 219.763 70.9774 219.837 70.6087 219.837C70.2607 219.837 69.951 219.774 69.6797 219.647C69.4083 219.519 69.1949 219.337 69.0396 219.101C68.8842 218.864 68.8065 218.584 68.8065 218.259H69.5647C69.5647 218.439 69.6092 218.596 69.6983 218.731C69.7894 218.863 69.9137 218.967 70.0712 219.042C70.2286 219.116 70.4078 219.153 70.6087 219.153C70.8304 219.153 71.0189 219.107 71.1742 219.014C71.3296 218.92 71.4477 218.784 71.5285 218.603C71.6113 218.421 71.6528 218.198 71.6528 217.935V213.386ZM75.6704 219.849C75.2727 219.849 74.9216 219.749 74.6171 219.548C74.3126 219.345 74.0743 219.059 73.9024 218.69C73.7305 218.32 73.6445 217.882 73.6445 217.376C73.6445 216.875 73.7305 216.44 73.9024 216.071C74.0743 215.702 74.3136 215.417 74.6202 215.217C74.9268 215.016 75.281 214.915 75.6828 214.915C75.9936 214.915 76.239 214.967 76.4193 215.071C76.6016 215.172 76.7403 215.288 76.8356 215.419C76.933 215.547 77.0086 215.653 77.0625 215.735H77.1246V214.977H77.8579V219.75H77.1495V219.017H77.0625C77.0086 219.104 76.932 219.213 76.8325 219.346C76.7331 219.477 76.5912 219.594 76.4068 219.697C76.2225 219.799 75.977 219.849 75.6704 219.849ZM75.7699 219.191C76.064 219.191 76.3126 219.114 76.5156 218.961C76.7186 218.805 76.8729 218.591 76.9786 218.318C77.0842 218.042 77.137 217.724 77.137 217.364C77.137 217.007 77.0853 216.696 76.9817 216.428C76.8781 216.159 76.7248 215.95 76.5218 215.801C76.3188 215.649 76.0681 215.574 75.7699 215.574C75.4591 215.574 75.2002 215.654 74.993 215.813C74.788 215.971 74.6336 216.185 74.5301 216.456C74.4286 216.726 74.3778 217.028 74.3778 217.364C74.3778 217.703 74.4296 218.012 74.5332 218.29C74.6388 218.565 74.7942 218.785 74.9993 218.948C75.2064 219.11 75.4633 219.191 75.7699 219.191ZM80.0361 216.879V219.75H79.3028V214.977H80.0112V215.723H80.0734C80.1852 215.481 80.3551 215.286 80.583 215.139C80.8108 214.99 81.105 214.915 81.4654 214.915C81.7886 214.915 82.0713 214.981 82.3137 215.114C82.5561 215.245 82.7446 215.443 82.8792 215.711C83.0139 215.976 83.0812 216.311 83.0812 216.717V219.75H82.3479V216.767C82.3479 216.392 82.2505 216.1 82.0558 215.891C81.8611 215.68 81.5939 215.574 81.2541 215.574C81.0201 215.574 80.8108 215.625 80.6265 215.726C80.4442 215.828 80.3002 215.976 80.1946 216.17C80.0889 216.365 80.0361 216.601 80.0361 216.879Z" fill="#1C1C1C" fill-opacity="0.4"/>
<path d="M129.076 219.75V213.386H132.891V214.07H129.846V216.22H132.606V216.904H129.846V219.75H129.076ZM135.762 219.849C135.303 219.849 134.906 219.748 134.572 219.545C134.241 219.34 133.985 219.054 133.805 218.687C133.627 218.319 133.538 217.89 133.538 217.401C133.538 216.912 133.627 216.481 133.805 216.108C133.985 215.733 134.236 215.441 134.557 215.232C134.88 215.021 135.257 214.915 135.688 214.915C135.936 214.915 136.182 214.957 136.424 215.039C136.667 215.122 136.887 215.257 137.086 215.443C137.285 215.628 137.443 215.872 137.562 216.177C137.68 216.481 137.739 216.856 137.739 217.302V217.612H134.06V216.978H136.993C136.993 216.709 136.939 216.469 136.831 216.257C136.726 216.046 136.574 215.879 136.378 215.757C136.183 215.635 135.953 215.574 135.688 215.574C135.396 215.574 135.143 215.646 134.93 215.791C134.718 215.934 134.556 216.121 134.442 216.351C134.328 216.581 134.271 216.827 134.271 217.09V217.513C134.271 217.873 134.333 218.179 134.457 218.429C134.584 218.678 134.759 218.868 134.983 218.998C135.206 219.126 135.466 219.191 135.762 219.191C135.955 219.191 136.129 219.164 136.284 219.11C136.442 219.054 136.578 218.971 136.692 218.861C136.805 218.749 136.894 218.611 136.956 218.445L137.664 218.644C137.59 218.884 137.464 219.095 137.288 219.278C137.112 219.458 136.895 219.599 136.636 219.7C136.377 219.8 136.086 219.849 135.762 219.849ZM138.954 219.75V213.386H139.687V215.735H139.749C139.803 215.653 139.877 215.547 139.973 215.419C140.07 215.288 140.209 215.172 140.389 215.071C140.571 214.967 140.818 214.915 141.129 214.915C141.531 214.915 141.885 215.016 142.191 215.217C142.498 215.417 142.737 215.702 142.909 216.071C143.081 216.44 143.167 216.875 143.167 217.376C143.167 217.882 143.081 218.32 142.909 218.69C142.737 219.059 142.499 219.345 142.194 219.548C141.89 219.749 141.539 219.849 141.141 219.849C140.835 219.849 140.589 219.799 140.405 219.697C140.22 219.594 140.078 219.477 139.979 219.346C139.88 219.213 139.803 219.104 139.749 219.017H139.662V219.75H138.954ZM139.674 217.364C139.674 217.724 139.727 218.042 139.833 218.318C139.939 218.591 140.093 218.805 140.296 218.961C140.499 219.114 140.748 219.191 141.042 219.191C141.348 219.191 141.604 219.11 141.809 218.948C142.016 218.785 142.172 218.565 142.275 218.29C142.381 218.012 142.434 217.703 142.434 217.364C142.434 217.028 142.382 216.726 142.278 216.456C142.177 216.185 142.023 215.971 141.815 215.813C141.61 215.654 141.352 215.574 141.042 215.574C140.743 215.574 140.493 215.649 140.29 215.801C140.087 215.95 139.933 216.159 139.83 216.428C139.726 216.696 139.674 217.007 139.674 217.364Z" fill="#1C1C1C" fill-opacity="0.4"/>
<path d="M188.357 213.386H189.277L191.44 218.669H191.514L193.677 213.386H194.597V219.75H193.876V214.915H193.814L191.825 219.75H191.129L189.14 214.915H189.078V219.75H188.357V213.386ZM197.845 219.849C197.447 219.849 197.096 219.749 196.791 219.548C196.487 219.345 196.249 219.059 196.077 218.69C195.905 218.32 195.819 217.882 195.819 217.376C195.819 216.875 195.905 216.44 196.077 216.071C196.249 215.702 196.488 215.417 196.794 215.217C197.101 215.016 197.455 214.915 197.857 214.915C198.168 214.915 198.413 214.967 198.593 215.071C198.776 215.172 198.915 215.288 199.01 215.419C199.107 215.547 199.183 215.653 199.237 215.735H199.299V214.977H200.032V219.75H199.324V219.017H199.237C199.183 219.104 199.106 219.213 199.007 219.346C198.907 219.477 198.765 219.594 198.581 219.697C198.397 219.799 198.151 219.849 197.845 219.849ZM197.944 219.191C198.238 219.191 198.487 219.114 198.69 218.961C198.893 218.805 199.047 218.591 199.153 218.318C199.258 218.042 199.311 217.724 199.311 217.364C199.311 217.007 199.259 216.696 199.156 216.428C199.052 216.159 198.899 215.95 198.696 215.801C198.493 215.649 198.242 215.574 197.944 215.574C197.633 215.574 197.374 215.654 197.167 215.813C196.962 215.971 196.808 216.185 196.704 216.456C196.603 216.726 196.552 217.028 196.552 217.364C196.552 217.703 196.604 218.012 196.707 218.29C196.813 218.565 196.968 218.785 197.173 218.948C197.381 219.11 197.637 219.191 197.944 219.191ZM201.477 219.75V214.977H202.185V215.698H202.235C202.322 215.462 202.48 215.27 202.707 215.123C202.935 214.976 203.192 214.903 203.478 214.903C203.532 214.903 203.599 214.904 203.68 214.906C203.761 214.908 203.822 214.911 203.863 214.915V215.661C203.838 215.655 203.782 215.645 203.692 215.633C203.605 215.618 203.513 215.611 203.416 215.611C203.184 215.611 202.977 215.66 202.794 215.757C202.614 215.852 202.471 215.985 202.366 216.155C202.262 216.323 202.21 216.514 202.21 216.73V219.75H201.477Z" fill="#1C1C1C" fill-opacity="0.4"/>
<path d="M249.469 219.75H248.661L250.997 213.386H251.793L254.13 219.75H253.322L251.42 214.393H251.37L249.469 219.75ZM249.767 217.264H253.023V217.948H249.767V217.264ZM255.021 221.54V214.977H255.73V215.735H255.817C255.871 215.653 255.945 215.547 256.04 215.419C256.138 215.288 256.277 215.172 256.457 215.071C256.639 214.967 256.886 214.915 257.196 214.915C257.598 214.915 257.952 215.016 258.259 215.217C258.566 215.417 258.805 215.702 258.977 216.071C259.149 216.44 259.235 216.875 259.235 217.376C259.235 217.882 259.149 218.32 258.977 218.69C258.805 219.059 258.567 219.345 258.262 219.548C257.958 219.749 257.607 219.849 257.209 219.849C256.902 219.849 256.657 219.799 256.472 219.697C256.288 219.594 256.146 219.477 256.047 219.346C255.947 219.213 255.871 219.104 255.817 219.017H255.755V221.54H255.021ZM255.742 217.364C255.742 217.724 255.795 218.042 255.901 218.318C256.006 218.591 256.161 218.805 256.364 218.961C256.567 219.114 256.815 219.191 257.109 219.191C257.416 219.191 257.672 219.11 257.877 218.948C258.084 218.785 258.239 218.565 258.343 218.29C258.449 218.012 258.501 217.703 258.501 217.364C258.501 217.028 258.45 216.726 258.346 216.456C258.245 216.185 258.09 215.971 257.883 215.813C257.678 215.654 257.42 215.574 257.109 215.574C256.811 215.574 256.56 215.649 256.357 215.801C256.154 215.95 256.001 216.159 255.898 216.428C255.794 216.696 255.742 217.007 255.742 217.364ZM260.353 219.75V214.977H261.062V215.698H261.111C261.198 215.462 261.356 215.27 261.584 215.123C261.812 214.976 262.069 214.903 262.354 214.903C262.408 214.903 262.476 214.904 262.556 214.906C262.637 214.908 262.698 214.911 262.74 214.915V215.661C262.715 215.655 262.658 215.645 262.569 215.633C262.482 215.618 262.39 215.611 262.292 215.611C262.06 215.611 261.853 215.66 261.671 215.757C261.491 215.852 261.348 215.985 261.242 216.155C261.138 216.323 261.087 216.514 261.087 216.73V219.75H260.353Z" fill="#1C1C1C" fill-opacity="0.4"/>
<path d="M307.276 213.386H308.196L310.359 218.669H310.433L312.596 213.386H313.516V219.75H312.795V214.915H312.733L310.744 219.75H310.048L308.06 214.915H307.997V219.75H307.276V213.386ZM316.764 219.849C316.366 219.849 316.015 219.749 315.71 219.548C315.406 219.345 315.168 219.059 314.996 218.69C314.824 218.32 314.738 217.882 314.738 217.376C314.738 216.875 314.824 216.44 314.996 216.071C315.168 215.702 315.407 215.417 315.713 215.217C316.02 215.016 316.374 214.915 316.776 214.915C317.087 214.915 317.332 214.967 317.513 215.071C317.695 215.172 317.834 215.288 317.929 215.419C318.026 215.547 318.102 215.653 318.156 215.735H318.218V214.977H318.951V219.75H318.243V219.017H318.156C318.102 219.104 318.025 219.213 317.926 219.346C317.826 219.477 317.684 219.594 317.5 219.697C317.316 219.799 317.07 219.849 316.764 219.849ZM316.863 219.191C317.157 219.191 317.406 219.114 317.609 218.961C317.812 218.805 317.966 218.591 318.072 218.318C318.177 218.042 318.23 217.724 318.23 217.364C318.23 217.007 318.179 216.696 318.075 216.428C317.971 216.159 317.818 215.95 317.615 215.801C317.412 215.649 317.161 215.574 316.863 215.574C316.552 215.574 316.293 215.654 316.086 215.813C315.881 215.971 315.727 216.185 315.623 216.456C315.522 216.726 315.471 217.028 315.471 217.364C315.471 217.703 315.523 218.012 315.626 218.29C315.732 218.565 315.887 218.785 316.093 218.948C316.3 219.11 316.557 219.191 316.863 219.191ZM320.868 221.54C320.744 221.54 320.633 221.529 320.536 221.509C320.439 221.49 320.371 221.471 320.334 221.453L320.52 220.806C320.698 220.852 320.856 220.869 320.993 220.856C321.129 220.844 321.251 220.783 321.356 220.673C321.464 220.565 321.562 220.39 321.651 220.148L321.788 219.775L320.023 214.977H320.819L322.136 218.781H322.186L323.503 214.977H324.299L322.273 220.446C322.182 220.693 322.069 220.897 321.934 221.058C321.799 221.222 321.643 221.343 321.465 221.422C321.289 221.5 321.09 221.54 320.868 221.54Z" fill="#1C1C1C" fill-opacity="0.4"/>
<path d="M371.143 213.386H371.914V217.935C371.914 218.341 371.839 218.686 371.69 218.97C371.541 219.254 371.331 219.469 371.059 219.616C370.788 219.763 370.468 219.837 370.099 219.837C369.751 219.837 369.442 219.774 369.17 219.647C368.899 219.519 368.686 219.337 368.53 219.101C368.375 218.864 368.297 218.584 368.297 218.259H369.055C369.055 218.439 369.1 218.596 369.189 218.731C369.28 218.863 369.404 218.967 369.562 219.042C369.719 219.116 369.898 219.153 370.099 219.153C370.321 219.153 370.509 219.107 370.665 219.014C370.82 218.92 370.938 218.784 371.019 218.603C371.102 218.421 371.143 218.198 371.143 217.935V213.386ZM376.367 217.799V214.977H377.1V219.75H376.367V218.942H376.317C376.205 219.184 376.031 219.391 375.795 219.56C375.559 219.728 375.26 219.812 374.9 219.812C374.602 219.812 374.337 219.747 374.105 219.616C373.873 219.484 373.69 219.285 373.558 219.02C373.425 218.753 373.359 218.416 373.359 218.01V214.977H374.092V217.96C374.092 218.308 374.189 218.586 374.384 218.793C374.581 219 374.832 219.104 375.136 219.104C375.318 219.104 375.504 219.057 375.692 218.964C375.883 218.871 376.042 218.728 376.171 218.535C376.301 218.342 376.367 218.097 376.367 217.799ZM379.176 216.879V219.75H378.443V214.977H379.151V215.723H379.214C379.326 215.481 379.495 215.286 379.723 215.139C379.951 214.99 380.245 214.915 380.606 214.915C380.929 214.915 381.212 214.981 381.454 215.114C381.696 215.245 381.885 215.443 382.019 215.711C382.154 215.976 382.221 216.311 382.221 216.717V219.75H381.488V216.767C381.488 216.392 381.391 216.1 381.196 215.891C381.001 215.68 380.734 215.574 380.394 215.574C380.16 215.574 379.951 215.625 379.767 215.726C379.584 215.828 379.44 215.976 379.335 216.17C379.229 216.365 379.176 216.601 379.176 216.879Z" fill="#1C1C1C" fill-opacity="0.4"/>
<path d="M432.528 213.386H433.298V217.935C433.298 218.341 433.224 218.686 433.075 218.97C432.925 219.254 432.715 219.469 432.444 219.616C432.172 219.763 431.852 219.837 431.484 219.837C431.136 219.837 430.826 219.774 430.555 219.647C430.283 219.519 430.07 219.337 429.914 219.101C429.759 218.864 429.681 218.584 429.681 218.259H430.44C430.44 218.439 430.484 218.596 430.573 218.731C430.664 218.863 430.789 218.967 430.946 219.042C431.103 219.116 431.283 219.153 431.484 219.153C431.705 219.153 431.894 219.107 432.049 219.014C432.204 218.92 432.323 218.784 432.403 218.603C432.486 218.421 432.528 218.198 432.528 217.935V213.386ZM437.751 217.799V214.977H438.484V219.75H437.751V218.942H437.701C437.589 219.184 437.415 219.391 437.179 219.56C436.943 219.728 436.645 219.812 436.284 219.812C435.986 219.812 435.721 219.747 435.489 219.616C435.257 219.484 435.075 219.285 434.942 219.02C434.809 218.753 434.743 218.416 434.743 218.01V214.977H435.476V217.96C435.476 218.308 435.574 218.586 435.768 218.793C435.965 219 436.216 219.104 436.52 219.104C436.703 219.104 436.888 219.057 437.077 218.964C437.267 218.871 437.427 218.728 437.555 218.535C437.686 218.342 437.751 218.097 437.751 217.799ZM440.561 213.386V219.75H439.827V213.386H440.561Z" fill="#1C1C1C" fill-opacity="0.4"/>
<mask id="mask0_153_5823" style="mask-type:alpha" maskUnits="userSpaceOnUse" x="46" y="46" width="420" height="178">
<rect x="46.1665" y="46.0833" width="419.042" height="177.917" fill="black"/>
</mask>
<g mask="url(#mask0_153_5823)">
<path d="M47.6631 180.262L73.1041 147.999C76.0169 144.306 80.5324 142.244 85.2314 142.462L111.975 143.703L142.468 146.434C146.239 146.772 149.993 145.63 152.938 143.249L191.494 112.076C195.162 109.111 200.637 110.355 202.663 114.614L225.734 163.116C227.953 167.781 232.474 170.924 237.621 171.379L268.864 174.137C274.178 174.606 279.323 172.137 282.282 167.698L298.435 143.463C302.253 137.735 309.556 135.457 315.953 137.997L332.314 144.495C340.615 147.792 349.902 142.92 351.907 134.216L359.359 101.878C360.775 95.7313 365.983 91.1918 372.266 90.6279L404.968 87.6927C406.858 87.523 408.696 86.9862 410.381 86.1122L453.236 63.875" stroke="#A8C5DA" stroke-width="0.729167" stroke-linecap="round" stroke-dasharray="1.46 2.92"/>
</g>
<mask id="mask1_153_5823" style="mask-type:alpha" maskUnits="userSpaceOnUse" x="46" y="46" width="420" height="178">
<rect x="46.1665" y="46.0833" width="419.042" height="177.917" fill="black"/>
</mask>
<g mask="url(#mask1_153_5823)">
<mask id="mask2_153_5823" style="mask-type:alpha" maskUnits="userSpaceOnUse" x="47" y="75" width="407" height="149">
<path d="M64.478 143.002L47.6631 150.488V224H453.236V95.8338L428.02 99.4549C425.059 99.8801 422.301 101.205 420.119 103.251L404.377 118.008C398.635 123.392 389.657 123.247 384.091 117.681L373.967 107.557C367.035 100.625 356.336 99.1515 347.788 103.952L341.543 107.459C335.902 110.628 328.758 108.233 326.166 102.304L317.383 82.2161C313.919 74.2932 303.062 73.3395 298.27 80.537C292.047 89.8836 281.008 94.8243 269.892 93.2385L260.172 91.8519C254.109 90.9871 248.153 94.0016 245.259 99.3985L226.845 133.745C224.023 139.01 218.275 142.021 212.341 141.344L189.477 138.738C180.211 137.681 170.998 141.12 164.69 147.99L163.461 149.328C154.497 159.09 142.476 165.509 129.378 167.527L121.934 168.674C118.341 169.228 114.883 170.449 111.738 172.274L111.225 172.572C103.713 176.931 94.0795 173.798 90.5676 165.855L83.747 150.428C80.4843 143.048 71.8493 139.721 64.478 143.002Z" fill="url(#paint0_radial_153_5823)"/>
</mask>
<g mask="url(#mask2_153_5823)">
<path opacity="0.6" d="M64.478 143.002L47.6631 150.488V224H453.236V95.8338L428.02 99.4549C425.059 99.8801 422.301 101.205 420.119 103.251L404.377 118.008C398.635 123.392 389.657 123.247 384.091 117.681L373.967 107.557C367.035 100.625 356.336 99.1515 347.788 103.952L341.543 107.459C335.902 110.628 328.758 108.233 326.166 102.304L317.383 82.2161C313.919 74.2932 303.062 73.3395 298.27 80.5371C292.047 89.8836 281.008 94.8243 269.892 93.2385L260.172 91.8519C254.11 90.9871 248.153 94.0016 245.259 99.3985L226.845 133.745C224.023 139.01 218.275 142.021 212.341 141.344L189.477 138.738C180.211 137.681 170.998 141.12 164.69 147.99L163.461 149.328C154.497 159.09 142.476 165.509 129.378 167.527L121.934 168.674C118.341 169.228 114.883 170.449 111.738 172.274L111.225 172.572C103.713 176.931 94.0795 173.798 90.5676 165.855L83.747 150.428C80.4843 143.048 71.8493 139.721 64.478 143.002Z" fill="#1C1C1C"/>
</g>
<path d="M47.6631 150.134L57.2394 145.889C64.0194 142.882 67.4095 141.379 70.5815 141.414C74.0873 141.453 77.4618 142.754 80.087 145.078C82.4621 147.18 83.9668 150.57 86.9761 157.348L90.372 164.998C90.5509 165.401 90.6403 165.602 90.7178 165.766C94.3062 173.337 103.521 176.334 110.877 172.323C111.036 172.237 111.227 172.127 111.608 171.906V171.906C111.748 171.825 111.818 171.785 111.888 171.745C114.942 170.002 118.286 168.826 121.759 168.274C121.838 168.261 121.918 168.249 122.078 168.224L128.374 167.258C129.409 167.099 129.926 167.02 130.428 166.934C142.774 164.818 154.112 158.783 162.762 149.723C163.114 149.355 163.469 148.97 164.178 148.201V148.201C164.685 147.651 164.939 147.375 165.186 147.12C171.308 140.796 179.959 137.575 188.726 138.355C189.08 138.387 189.451 138.429 190.195 138.513L206.478 140.362C212.144 141.006 214.977 141.327 217.531 140.692C219.787 140.13 221.876 139.037 223.624 137.504C225.602 135.77 226.954 133.259 229.656 128.238L243.585 102.363C245.187 99.3879 245.988 97.9003 246.988 96.7239C249.529 93.7367 253.166 91.8987 257.078 91.6249C258.619 91.5171 260.292 91.7547 263.637 92.23L269.929 93.1239C281.027 94.7006 292.047 89.7772 298.277 80.4587V80.4587C303.076 73.2799 313.911 74.2339 317.383 82.1408L324.939 99.3528C326.067 101.922 326.631 103.207 327.308 104.146C330.052 107.951 334.917 109.583 339.401 108.202C340.508 107.86 341.732 107.176 344.181 105.806V105.806C347.659 103.861 349.397 102.888 351.086 102.279C357.842 99.842 365.364 100.877 371.212 105.048C372.673 106.09 374.085 107.496 376.908 110.308L379.436 112.825C383.807 117.178 385.992 119.355 388.412 120.445C392.072 122.094 396.25 122.161 399.962 120.631C402.415 119.619 404.67 117.514 409.178 113.305L418.111 104.965C420.102 103.106 421.097 102.176 422.223 101.457C423.223 100.819 424.296 100.305 425.42 99.9266C426.686 99.5003 428.034 99.3075 430.731 98.9218L453.236 95.7033" stroke="url(#paint1_linear_153_5823)" stroke-width="0.729167" stroke-linecap="round"/>
<path d="M47.6631 150.134L57.2394 145.889C64.0194 142.882 67.4095 141.379 70.5815 141.414C74.0873 141.453 77.4618 142.754 80.087 145.078C82.4621 147.18 83.9668 150.57 86.9761 157.348L90.372 164.998C90.5509 165.401 90.6403 165.602 90.7178 165.766C94.3062 173.337 103.521 176.334 110.877 172.323C111.036 172.237 111.227 172.127 111.608 171.906V171.906C111.748 171.825 111.818 171.785 111.888 171.745C114.942 170.002 118.286 168.826 121.759 168.274C121.838 168.261 121.918 168.249 122.078 168.224L128.374 167.258C129.409 167.099 129.926 167.02 130.428 166.934C142.774 164.818 154.112 158.783 162.762 149.723C163.114 149.355 163.469 148.97 164.178 148.201V148.201C164.685 147.651 164.939 147.375 165.186 147.12C171.308 140.796 179.959 137.575 188.726 138.355C189.08 138.387 189.451 138.429 190.195 138.513L206.478 140.362C212.144 141.006 214.977 141.327 217.531 140.692C219.787 140.13 221.876 139.037 223.624 137.504C225.602 135.77 226.954 133.259 229.656 128.238L243.585 102.363C245.187 99.3879 245.988 97.9003 246.988 96.7239C249.529 93.7367 253.166 91.8987 257.078 91.6249C258.619 91.5171 260.292 91.7547 263.637 92.23L269.929 93.1239C281.027 94.7006 292.047 89.7772 298.277 80.4587V80.4587C303.076 73.2799 313.911 74.2339 317.383 82.1408L324.939 99.3528C326.067 101.922 326.631 103.207 327.308 104.146C330.052 107.951 334.917 109.583 339.401 108.202C340.508 107.86 341.732 107.176 344.181 105.806V105.806C347.659 103.861 349.397 102.888 351.086 102.279C357.842 99.842 365.364 100.877 371.212 105.048C372.673 106.09 374.085 107.496 376.908 110.308L379.436 112.825C383.807 117.178 385.992 119.355 388.412 120.445C392.072 122.094 396.25 122.161 399.962 120.631C402.415 119.619 404.67 117.514 409.178 113.305L418.111 104.965C420.102 103.106 421.097 102.176 422.223 101.457C423.223 100.819 424.296 100.305 425.42 99.9266C426.686 99.5003 428.034 99.3075 430.731 98.9218L453.236 95.7033" stroke="#1C1C1C" stroke-width="0.729167" stroke-linecap="round" style="mix-blend-mode:screen"/>
</g>
<defs>
<radialGradient id="paint0_radial_153_5823" cx="0" cy="0" r="1" gradientUnits="userSpaceOnUse" gradientTransform="translate(250.449 93.2889) rotate(90) scale(87.1316 198.984)">
<stop stop-opacity="0.08"/>
<stop offset="1" stop-opacity="0"/>
</radialGradient>
<linearGradient id="paint1_linear_153_5823" x1="49.5749" y1="193.401" x2="453.236" y2="193.401" gradientUnits="userSpaceOnUse">
<stop stop-opacity="0.4"/>
<stop offset="1"/>
</linearGradient>
</defs>
</svg>
