<svg width="21" height="27" viewBox="0 0 21 27" fill="none" xmlns="http://www.w3.org/2000/svg">
<path d="M13.5286 11.719L10.5 14.7812L7.45714 11.719L5.44286 13.7556L8.48571 16.8178L5.45714 19.8801L7.47143 21.9167L10.5 18.8545L13.5286 21.9167L15.5429 19.8801L12.5143 16.8178L15.5429 13.7556L13.5286 11.719ZM15.5 2.3734L14.0714 0.928955H6.92857L5.5 2.3734H0.5V5.26229H20.5V2.3734H15.5ZM1.92857 24.0401C1.92857 25.629 3.21429 26.929 4.78571 26.929H16.2143C17.7857 26.929 19.0714 25.629 19.0714 24.0401V6.70673H1.92857V24.0401ZM4.78571 9.59562H16.2143V24.0401H4.78571V9.59562Z" fill="white"/>
</svg>
