<svg width="12" height="13" viewBox="0 0 12 13" fill="none" xmlns="http://www.w3.org/2000/svg">
<path fill-rule="evenodd" clip-rule="evenodd" d="M10.586 3.237C10.7312 3.37644 10.7359 3.60724 10.5965 3.75249L8.1465 6.30457C8.07775 6.37619 7.98277 6.41667 7.8835 6.41667C7.78422 6.41667 7.68924 6.37619 7.62049 6.30457L6.1335 4.75562L4.37136 6.59118L5.62682 7.79642L1.5835 8.96876L2.58989 4.88097L3.84535 6.08621L5.87049 3.97669C5.93924 3.90507 6.03422 3.86459 6.1335 3.86459C6.23277 3.86459 6.32775 3.90507 6.3965 3.97669L7.8835 5.52564L10.0705 3.24752C10.2099 3.10227 10.4407 3.09756 10.586 3.237Z" fill="#1C1C1C"/>
</svg>
