<svg width="12" height="13" viewBox="0 0 12 13" fill="none" xmlns="http://www.w3.org/2000/svg">
<path fill-rule="evenodd" clip-rule="evenodd" d="M6.29001 4.67235L10.3333 3.50002L9.32694 7.5878L8.07148 6.38256L6.04634 8.49208C5.97759 8.5637 5.88261 8.60418 5.78333 8.60418C5.68406 8.60418 5.58908 8.5637 5.52033 8.49208L4.03333 6.94313L1.84634 9.22125C1.7069 9.3665 1.4761 9.37122 1.33085 9.23177C1.18559 9.09233 1.18088 8.86153 1.32033 8.71628L3.77033 6.1642C3.83908 6.09258 3.93406 6.0521 4.03333 6.0521C4.13261 6.0521 4.22759 6.09258 4.29634 6.1642L5.78333 7.71315L7.54547 5.87759L6.29001 4.67235Z" fill="#1C1C1C"/>
</svg>
